<svg xmlns="http://www.w3.org/2000/svg" width="24" height="19" viewBox="0 0 24 19">
    <g fill="#565454" fill-rule="nonzero">
        <path d="M20.8 0H3.2C1.434 0 0 1.465 0 3.274v11.489c0 1.809 1.435 3.288 3.2 3.288h17.6c1.765 0 3.2-1.48 3.2-3.288V3.274C24 1.464 22.565 0 20.8 0zM1.068 4.923h21.866v2.462H1.067V4.923zm21.866 9.84c0 1.206-.956 2.194-2.132 2.194H3.199c-1.176 0-2.132-.988-2.132-2.194V8.479h21.866v6.284zM1.067 3.829v-.555c0-1.206.956-2.18 2.132-2.18h17.602c1.176 0 2.132.974 2.132 2.18v.555H1.067z"/>
        <path d="M4 14.496h1.6a.54.54 0 0 0 .533-.547.54.54 0 0 0-.533-.547H4a.54.54 0 0 0-.533.547.54.54 0 0 0 .533.547zM9.867 14.496h.533a.54.54 0 0 0 .533-.547.54.54 0 0 0-.533-.547h-.533a.54.54 0 0 0-.534.547.54.54 0 0 0 .534.547zM7.733 14.496a.545.545 0 0 0 .533-.547.545.545 0 0 0-.157-.386.54.54 0 0 0-.754 0 .554.554 0 0 0 .002.771.518.518 0 0 0 .376.162z"/>
    </g>
</svg>
