<svg xmlns="http://www.w3.org/2000/svg" width="24" height="20" viewBox="0 0 24 20">
    <g fill="#FFF" fill-rule="nonzero">
        <path d="M23.558 9.693L13.465.475C13.121.139 12.663 0 12.172 0c-.49 0-.95.139-1.274.458L.43 9.728c-.537.524-.457.961-.362 1.173.095.213.373.574 1.158.574H3.01l-.005 7.541c0 .276.236.491.528.492v-.004a.516.516 0 0 0 .529-.501l.005-8.058a.452.452 0 0 0-.155-.337.532.532 0 0 0-.374-.13h-2.31c-.03 0-.058-.018-.082-.02.009-.008.018-.026.028-.036L11.64 1.125a.757.757 0 0 1 .532-.217V.907c.2 0 .39.076.544.226l10.093 9.265c.017.016.031.047.044.061-.023.001-.05.018-.08.018h-2.31c-.291 0-.528.207-.528.482l-.015 8.028c0 .276.235.471.527.471h.001c.292 0 .528-.186.529-.461l.014-7.522h1.783c.784 0 1.062-.373 1.158-.586.095-.21.174-.66-.374-1.196z"/>
        <path d="M13.833 19C14.74 19 15 18.784 15 19v-8c0 .216-.25 0 0 0H8c.261 0 0 .216 0 0v8c0-.216.261 0 0 0 .905 0 1.167-.216 1.167 0v-7h4.666v7c0-.216.262 0 0 0z"/>
    </g>
</svg>
