<svg xmlns="http://www.w3.org/2000/svg" width="19" height="20" viewBox="0 0 19 20">
    <path fill="#003087" fill-rule="evenodd" d="M8.58 16.51c-.12 0-.24-.03-.345-.075a.9.9 0 0 1-.556-.826V8.944L3.262 4.531a.904.904 0 0 1-.196-.976c.15-.33.481-.555.842-.555h11.209c.36 0 .691.225.826.555.136.33.06.72-.195.976l-4.403 4.413v4.804a.84.84 0 0 1-.27.63L9.212 16.24a.865.865 0 0 1-.631.27zM4.344 4.08l4.148 4.144c.165.165.27.39.27.63v6.32l1.503-1.501V8.869c0-.24.09-.465.27-.63l4.147-4.143H4.343V4.08z"/>
</svg>
