<svg xmlns="http://www.w3.org/2000/svg" width="24" height="24" viewBox="0 0 24 24">
    <g fill="none" fill-rule="evenodd" stroke="#565454" stroke-linejoin="round">
        <path stroke-linecap="round" d="M8.5 8.5v5h9v-5M5.5 7L13 .5 20.5 7M16 .5h2.5V3"/>
        <path d="M.499 22.5h4v-8h-4z"/>
        <path stroke-linecap="round" d="M4.5 21.063c10.5 3.5 7 3.5 19-2.5-1.064-1.063-1.902-1.313-3-1l-4.317 1.367"/>
        <path stroke-linecap="round" d="M4.5 15.5h3c2.352 0 4 2 4.5 2h3.5c1 0 1 2 0 2H10M11.499 13.5h3v-4h-3z"/>
    </g>
</svg>
