<svg xmlns="http://www.w3.org/2000/svg" width="42" height="26" viewBox="0 0 42 26">
    <g fill="none" fill-rule="evenodd">
        <path fill="#DA291C" d="M42 0L30 6.645h4.805a16.896 16.896 0 0 0 1.35 16.555C34.724 14.532 38.228 6.138 42 0"/>
        <path fill="#FFF" d="M1.681 25.2h.63v-1.962h-.63V25.2zM1.6 22.652c0-.136.169-.252.4-.252.225 0 .4.116.4.252 0 .137-.175.253-.4.253-.231 0-.4-.116-.4-.253zM2.4 23.232h.303v.206c.09-.141.212-.238.373-.238.042 0 .09.012.124.024v.367a.467.467 0 0 0-.154-.029.422.422 0 0 0-.34.165V25.2H2.4v-1.968zM3.6 25.093v-.317c.117.056.325.115.492.115.234 0 .347-.083.347-.262 0-.162-.113-.205-.332-.289-.263-.083-.504-.233-.504-.581 0-.385.26-.559.639-.559.186 0 .361.044.449.083v.321a1.1 1.1 0 0 0-.435-.095c-.204 0-.302.079-.302.222 0 .142.091.198.32.277.249.087.526.214.526.598 0 .372-.263.594-.653.594-.211 0-.42-.044-.547-.107M5.074 24.664v-1.083H4.8v-.283h.279l.073-.498h.336v.498h.459v.283h-.459v1.026c0 .195.074.279.258.279A.744.744 0 0 0 6 24.84v.306a1.154 1.154 0 0 1-.348.054c-.381 0-.578-.145-.578-.536M8.411 24.314l-.25-.693a5.995 5.995 0 0 1-.159-.474h-.008a9.384 9.384 0 0 1-.163.474l-.263.693h.843zM7.764 22.8h.501l.935 2.4h-.476l-.2-.559H7.45l-.209.559H6.8l.964-2.4zM10.391 24.174c0-.394-.114-.692-.473-.692a.513.513 0 0 0-.332.119v1.229c.08.028.19.044.294.044.358 0 .511-.3.511-.7m-1.191.891V22.4h.386v.932c.069-.081.229-.187.45-.187.542 0 .764.451.764 1.009 0 .574-.324 1.046-.928 1.046-.252 0-.5-.061-.672-.135M11.2 24.504V23.2h.406v1.24c0 .273.085.434.382.434a.76.76 0 0 0 .402-.137V23.2h.41v1.968h-.406v-.157a.896.896 0 0 1-.548.189c-.483 0-.646-.298-.646-.696M14.738 24.869c.657 0 .818-.405.818-.867 0-.463-.153-.879-.794-.879h-.343v1.746h.319zM14 22.8h.81c.863 0 1.19.578 1.19 1.202 0 .59-.314 1.198-1.202 1.198H14v-2.4zM16.4 22.4h.402v.947a.895.895 0 0 1 .548-.193c.483 0 .65.304.65.712V25.2h-.41v-1.268c0-.28-.082-.445-.378-.445a.72.72 0 0 0-.402.14V25.2h-.41v-2.8zM19.014 24.769v-.452c-.027 0-.095-.004-.144-.004-.314 0-.485.091-.485.309 0 .179.114.277.303.277.14 0 .257-.06.326-.13m.049.213a.622.622 0 0 1-.484.218c-.349 0-.579-.206-.579-.547 0-.4.321-.593.832-.593.06 0 .132.004.182.008v-.155c0-.277-.107-.392-.379-.392-.193 0-.355.06-.465.111v-.325a1.38 1.38 0 0 1 .533-.107c.436 0 .693.194.693.646v.88c0 .122.052.161.136.161.019 0 .045-.004.068-.008v.277a.483.483 0 0 1-.216.044.319.319 0 0 1-.321-.218"/>
        <path fill="#FFF" d="M20.792 24.174c0-.394-.115-.692-.474-.692a.512.512 0 0 0-.332.119v1.229c.08.028.19.044.294.044.359 0 .512-.3.512-.7m-1.192.891V22.4h.386v.932a.604.604 0 0 1 .45-.187c.543 0 .764.451.764 1.009 0 .574-.324 1.046-.928 1.046-.252 0-.5-.061-.672-.135M21.681 25.2h.631v-1.962h-.63V25.2zm-.081-2.548c0-.136.169-.252.4-.252.225 0 .4.116.4.252 0 .137-.175.253-.4.253-.231 0-.4-.116-.4-.253zM23.961 24.88c.275 0 .42-.134.42-.385 0-.258-.134-.4-.413-.4h-.382v.785h.375zm-.011-1.074c.267 0 .39-.127.39-.355 0-.196-.12-.331-.386-.331h-.368v.686h.364zM23.2 22.8h.794c.48 0 .732.243.732.609a.528.528 0 0 1-.375.528v.007c.252.054.449.243.449.563 0 .42-.297.693-.783.693H23.2v-2.4zM26.214 24.769v-.452c-.027 0-.095-.004-.144-.004-.314 0-.484.091-.484.309 0 .179.113.277.302.277.14 0 .258-.06.326-.13m.05.213a.622.622 0 0 1-.485.218c-.348 0-.579-.206-.579-.547 0-.4.322-.593.832-.593.06 0 .133.004.182.008v-.155c0-.277-.106-.392-.379-.392-.192 0-.355.06-.465.111v-.325a1.38 1.38 0 0 1 .533-.107c.435 0 .692.194.692.646v.88c0 .122.053.161.137.161a.433.433 0 0 0 .068-.008v.277a.483.483 0 0 1-.216.044c-.162 0-.272-.083-.32-.218M27.2 23.232h.402v.157a.905.905 0 0 1 .548-.189c.483 0 .65.298.65.696V25.2h-.41v-1.24c0-.273-.082-.434-.378-.434a.732.732 0 0 0-.402.137V25.2h-.41v-1.968zM29.777 24.922l-.566-.75v1.012H28.8V22.4h.411v1.658l.705-.876h.452l-.745.9.52.672c.066.086.119.123.208.123.009 0 .017 0 .049-.005v.312a.444.444 0 0 1-.122.016c-.195 0-.338-.057-.5-.278M0 22.8h1.6v.331H.462v.659H1.48v.312H.462V25.2H0zM20.8 6.8h5.108c2.91 0 4.482 1.397 4.482 3.47 0 1.682-1.012 2.708-2.112 3.013v.044c1.444.327 2.522 1.353 2.522 3.121 0 2.489-1.854 3.952-4.763 3.952H20.8V6.8zm4.72 5.545c1.336 0 1.896-.612 1.896-1.66 0-.938-.581-1.55-1.875-1.55h-1.788v3.21h1.767zm.064 5.719c1.315 0 2.026-.611 2.026-1.812 0-1.222-.668-1.856-2.004-1.856h-1.853v3.668h1.831zM11.822 6.8h3.284L20 20.4h-3.198l-.858-2.707h-5.216L9.826 20.4H6.8l5.022-13.6zm3.349 8.492l-1.116-3.493c-.258-.808-.515-1.594-.666-2.226h-.042c-.172.61-.43 1.44-.688 2.226l-1.158 3.493h3.67zM0 6.8h8v2.467H2.87v3.165h4.565v2.27H2.869V20.4H0zM3.226 3.206h-.425a.397.397 0 0 1-.302-.135.46.46 0 0 1-.125-.323v-.286c0-.127.042-.235.125-.323a.396.396 0 0 1 .302-.136c.116 0 .217.045.3.136a.455.455 0 0 1 .125.323v.744zM2.801 1.6c-.221 0-.41.085-.566.254A.858.858 0 0 0 2 2.462v.286c0 .237.078.44.235.61a.747.747 0 0 0 .566.252h.425a.408.408 0 0 1-.118.272.349.349 0 0 1-.257.113h-.422c-.031 0-.047.017-.047.051v.302c0 .034.016.052.047.052h.422a.69.69 0 0 0 .526-.24.803.803 0 0 0 .223-.569V2.462a.863.863 0 0 0-.233-.608.745.745 0 0 0-.566-.254zM5.557.8h-.25c-.027 0-.04.016-.04.049v2.062c0 .106-.02.182-.058.227-.039.044-.103.066-.192.067h-.979c-.025 0-.038.017-.038.051v.295c0 .033.014.049.041.049h.976a.53.53 0 0 0 .428-.184c.103-.122.155-.291.155-.507V.849C5.6.816 5.586.8 5.557.8"/>
        <path fill="#FFF" d="M4.445 1.2c-.03 0-.045.017-.045.051v1.898c0 .034.015.051.045.051h.276c.032 0 .048-.017.048-.05V1.25c0-.034-.016-.051-.048-.051h-.276z"/>
        <path fill="#FFF" d="M4.44 1.2h.72c.027 0 .04-.014.04-.043V1.03c0-.028-.013-.043-.04-.043h-.414V.75c0-.038.013-.07.038-.095a.116.116 0 0 1 .088-.04c.056 0 .093.028.114.082l.023.06a.06.06 0 0 0 .02.023.041.041 0 0 0 .016.003.033.033 0 0 0 .016-.003L5.17.727c.016-.008.025-.02.025-.034a.06.06 0 0 0-.004-.02L5.168.614C5.112.471 5.014.4 4.872.4a.302.302 0 0 0-.229.103.35.35 0 0 0-.093.246v.238h-.11c-.027 0-.04.015-.04.043v.127c0 .029.013.043.04.043M6.323.8h-.276C6.016.8 6 .817 6 .85v2.701c0 .033.016.049.047.049h.276c.03 0 .046-.016.046-.049v-2.7C6.369.817 6.354.8 6.323.8M9.105 4.4h-.257c-.032 0-.048.016-.048.048v.278c0 .033.016.05.048.05h.257c.031 0 .047-.017.047-.05v-.278c0-.032-.016-.048-.047-.048M8.703 4.4h-.257c-.03 0-.046.016-.046.048v.278c0 .033.015.05.046.05h.257c.031 0 .046-.017.046-.05v-.278c0-.032-.015-.048-.046-.048M13.905 4h-.259c-.03 0-.046.016-.046.048v.278c0 .033.015.05.046.05h.26c.03 0 .046-.017.046-.05v-.278c0-.032-.016-.048-.047-.048M16.43 2.861c0 .105-.02.18-.064.224-.041.044-.112.067-.213.068h-1.016v-.621c.113-.134.264-.256.453-.366.19-.109.337-.164.443-.164.156 0 .267.066.333.199a.686.686 0 0 1 .065.312v.348zm-.397-1.246c-.246 0-.545.141-.896.425V.85c0-.034-.015-.05-.047-.05h-.278c-.03 0-.045.016-.045.05v2.303h-.556c-.083 0-.137-.012-.163-.037a.087.087 0 0 1-.012-.049v-1.33c0-.032-.015-.048-.047-.048h-.278c-.03 0-.044.016-.044.048v1.282c0 .05-.01.086-.029.106-.019.02-.05.028-.094.028H10.7V2.28a.654.654 0 0 0-.186-.47.594.594 0 0 0-.449-.194.592.592 0 0 0-.447.195.654.654 0 0 0-.186.469v1.335H8.41a.423.423 0 0 1-.312-.135.484.484 0 0 1 .12-.751l.125-.067c.018-.01.028-.022.028-.037a.057.057 0 0 0-.008-.027l-.126-.258a.046.046 0 0 0-.027-.025.035.035 0 0 0-.015-.003.036.036 0 0 0-.02.007l-.124.065a.838.838 0 0 0-.328.32.886.886 0 0 0-.122.45c0 .235.079.436.237.601A.754.754 0 0 0 8.399 4h1.219c.05 0 .094-.019.13-.057a.19.19 0 0 0 .054-.136V2.279c0-.077.026-.143.078-.197a.247.247 0 0 1 .186-.081.25.25 0 0 1 .188.081c.052.054.078.12.078.197v1.068c0 .054.018.1.054.136.036.038.08.057.13.057h3.025a.474.474 0 0 0 .341-.126.581.581 0 0 0 .396.126h1.875c.203 0 .362-.06.476-.18.114-.12.171-.286.171-.499v-.348c0-.269-.07-.485-.212-.65a.694.694 0 0 0-.555-.248z"/>
        <path fill="#FFF" d="M15.646 1.575h.257c.032 0 .049-.016.049-.047v-.279c0-.033-.017-.049-.049-.049h-.257c-.03 0-.046.016-.046.049v.279c0 .031.015.047.046.047M17.958 3.206h-.402a.365.365 0 0 1-.284-.135.474.474 0 0 1-.118-.323v-.286c0-.127.04-.235.118-.323a.365.365 0 0 1 .568 0c.079.088.118.196.118.323v.744zm2.798-1.53h-.266c-.029 0-.044.017-.044.05v1.34c0 .053-.009.09-.027.11-.017.02-.05.03-.098.03H18.314v-.744a.888.888 0 0 0-.222-.608.689.689 0 0 0-1.07 0 .888.888 0 0 0-.222.608v.286c0 .237.074.44.222.61a.686.686 0 0 0 .534.252h.402a.427.427 0 0 1-.11.272.326.326 0 0 1-.243.113h-.4c-.03 0-.045.017-.045.051v.302c0 .034.015.052.044.052h.4a.642.642 0 0 0 .492-.233.84.84 0 0 0 .218-.557h2.007a.446.446 0 0 0 .35-.147.59.59 0 0 0 .129-.398V1.726c0-.033-.015-.05-.044-.05zM20.705 4h-.257c-.032 0-.048.016-.048.048v.278c0 .033.016.05.048.05h.257c.031 0 .047-.017.047-.05v-.278c0-.032-.016-.048-.047-.048M21.962.586h-.414V.348c0-.038.012-.07.037-.097a.115.115 0 0 1 .089-.039c.054 0 .091.027.112.083l.023.058c.008.02.019.028.033.028a.047.047 0 0 0 .018-.004l.11-.049c.01-.004.017-.012.021-.025a.048.048 0 0 0 .004-.016.045.045 0 0 0-.004-.016l-.022-.059C21.913.071 21.815 0 21.674 0a.3.3 0 0 0-.229.102.348.348 0 0 0-.094.246v.238h-.11c-.028 0-.041.014-.041.043v.128c0 .029.013.043.04.043h.722C21.987.8 22 .786 22 .757V.629c0-.029-.013-.043-.038-.043M21.923.8h-.275c-.032 0-.048.016-.048.049v2.702c0 .033.016.049.048.049h.275c.03 0 .046-.016.046-.049V.85c0-.033-.015-.049-.046-.049M24.04 2.4h.722c.025 0 .038-.014.038-.043v-.129c0-.028-.013-.043-.038-.043h-.414V1.95c0-.038.012-.07.036-.098a.117.117 0 0 1 .089-.039c.057 0 .094.028.114.082l.023.061c.007.017.019.025.035.025a.06.06 0 0 0 .02-.004l.108-.049a.051.051 0 0 0 .02-.023.053.053 0 0 0 .002-.015c0-.007 0-.013-.002-.018l-.024-.059c-.055-.141-.154-.212-.296-.212a.299.299 0 0 0-.228.101.357.357 0 0 0-.093.248v.236h-.112c-.027 0-.04.015-.04.043v.129c0 .029.013.043.04.043M28.846 1.574h.26c.03 0 .046-.016.046-.048v-.278c0-.032-.016-.048-.047-.048h-.259c-.03 0-.046.016-.046.048v.278c0 .032.015.048.046.048"/>
        <path fill="#FFF" d="M30.354 1.709h-.28c-.03 0-.046.016-.046.049v1.31c0 .052-.01.088-.029.109-.018.019-.052.029-.102.029H29.198c-.08 0-.13-.014-.153-.04-.01-.01-.016-.027-.016-.051v-1.36c0-.033-.015-.05-.046-.05h-.28c-.03 0-.046.017-.046.05v1.31c0 .054-.01.09-.027.108-.02.02-.051.032-.096.033h-3.072c-.082 0-.133-.014-.156-.04-.01-.007-.014-.024-.014-.051V.849c0-.032-.015-.049-.046-.049h-.28c-.032 0-.048.017-.048.049v2.215c0 .056-.009.093-.027.111-.02.02-.052.03-.097.03h-1.18a.424.424 0 0 1-.313-.137.505.505 0 0 1-.061-.588.465.465 0 0 1 .183-.18l.125-.068c.018-.01.027-.022.027-.038a.066.066 0 0 0-.007-.027l-.126-.264c-.007-.014-.016-.022-.027-.026a.03.03 0 0 0-.016-.004.037.037 0 0 0-.02.008l-.127.067a.838.838 0 0 0-.33.326.914.914 0 0 0-.122.461c0 .24.08.445.239.614.16.167.351.251.575.251h1.175a.481.481 0 0 0 .348-.13c.097.087.23.13.401.13h2.989a.48.48 0 0 0 .349-.13c.096.087.23.13.4.13h.621a.487.487 0 0 0 .367-.143.551.551 0 0 0 .136-.389v-1.31c0-.033-.015-.05-.046-.05M1.553.8H1.28c-.03 0-.046.015-.046.045v2.353a.42.42 0 0 1-.128.309.418.418 0 0 1-.306.127.419.419 0 0 1-.307-.127.42.42 0 0 1-.128-.309v-.867c0-.031-.015-.047-.044-.047H.047C.015 2.284 0 2.3 0 2.331v.867c0 .222.078.41.234.567A.77.77 0 0 0 .8 4c.22 0 .408-.078.566-.235a.773.773 0 0 0 .234-.567V.845C1.6.815 1.585.8 1.553.8M30.305 4h-.257c-.032 0-.048.016-.048.048v.278c0 .033.016.05.048.05h.257c.03 0 .047-.017.047-.05v-.278c0-.032-.016-.048-.047-.048"/>
    </g>
</svg>
