<svg xmlns="http://www.w3.org/2000/svg" width="16" height="14" viewBox="0 0 16 14">
    <g fill="#565454" fill-rule="nonzero" stroke="#FFF" stroke-width=".2">
        <path d="M5.148 8.052a2.118 2.118 0 0 0-1.428-1.19V1.519a.519.519 0 0 0-1.037 0v5.34a2.136 2.136 0 0 0 0 4.143v1.924a.519.519 0 1 0 1.037 0v-1.921a2.12 2.12 0 0 0 1.483-1.317c.201-.53.182-1.12-.055-1.636zm-.915 1.27a1.102 1.102 0 1 1-.029-.842c.124.265.136.568.034.842h-.005zM14.74 8.052a2.118 2.118 0 0 0-1.428-1.19V1.519a.519.519 0 1 0-1.037 0v5.34a2.136 2.136 0 0 0 0 4.143v1.924a.519.519 0 1 0 1.037 0v-1.921a2.12 2.12 0 0 0 1.483-1.317c.202-.53.182-1.12-.054-1.636zm-.914 1.27a1.102 1.102 0 1 1-2.063-.777 1.102 1.102 0 0 1 2.063.777zM8.752 3.593a2.48 2.48 0 0 0-.236-.073V1.519a.519.519 0 0 0-1.037 0v2.009A2.141 2.141 0 0 0 6.05 6.483 2.126 2.126 0 0 0 7.48 7.676v5.25a.519.519 0 1 0 1.037 0V7.673a2.136 2.136 0 0 0 .236-4.08zm.285 2.398a1.102 1.102 0 1 1-.643-1.421c.271.105.49.313.607.578.124.265.137.568.036.843z"/>
    </g>
</svg>
