<svg xmlns="http://www.w3.org/2000/svg" width="16" height="16" viewBox="0 0 16 16">
    <path fill="#003087" fill-rule="evenodd" d="M3.567 9.743v1.51a.453.453 0 0 1-.906 0v-1.51a.453.453 0 0 1 .906 0zm0-4.995v1.51a.453.453 0 0 1-.906 0v-1.51a.453.453 0 0 1 .906 0zm5.943 5.39A2.14 2.14 0 0 1 7.372 8c0-1.178.96-2.137 2.138-2.137s2.138.96 2.138 2.137a2.14 2.14 0 0 1-2.138 2.138zm3.567-2.59h-.57c-.075-.5-.27-.958-.557-1.347l.402-.402a.453.453 0 0 0-.64-.64l-.403.402a3.012 3.012 0 0 0-1.347-.557v-.571a.453.453 0 0 0-.906 0v.57c-.5.075-.957.269-1.347.557l-.403-.402a.453.453 0 1 0-.64.64l.402.402c-.288.39-.482.847-.557 1.347h-.569a.453.453 0 0 0 0 .905h.57c.076.5.27.958.557 1.347l-.401.402a.453.453 0 0 0 .64.64l.402-.402c.39.288.847.482 1.348.557v.57a.453.453 0 0 0 .905 0v-.57c.5-.075.958-.269 1.348-.557l.402.403a.45.45 0 0 0 .64 0 .453.453 0 0 0 0-.641l-.402-.402c.289-.389.482-.847.558-1.347h.57a.453.453 0 1 0-.002-.904zm2.018 4.98a2.569 2.569 0 0 1-2.566 2.567H3.471a2.57 2.57 0 0 1-2.566-2.566V3.472A2.57 2.57 0 0 1 3.471.906h9.058a2.569 2.569 0 0 1 2.565 2.566v9.057zM12.529 0H3.471A3.476 3.476 0 0 0 0 3.472v9.057a3.476 3.476 0 0 0 3.471 3.473h9.058A3.476 3.476 0 0 0 16 12.529V3.472A3.475 3.475 0 0 0 12.53 0z" opacity=".8"/>
</svg>
