<svg xmlns="http://www.w3.org/2000/svg" width="28" height="20" viewBox="0 0 28 20">
    <g fill="#0C2340" fill-rule="nonzero">
        <path stroke="#0C2340" stroke-width=".5" d="M20.5 1.001a.254.254 0 0 0-.2.199l-.277 1.375c-.294.09-.57.216-.835.358l-1.184-.78a.254.254 0 0 0-.318.033c-.39.39-.802.785-1.2 1.184a.254.254 0 0 0-.033.318l.803 1.184a4.83 4.83 0 0 0-.35.835L15.5 6.01a.254.254 0 0 0-.207.255v1.66c.002.122.088.225.207.247l1.407.31c.09.29.21.564.35.827l-.804 1.184a.254.254 0 0 0 .032.326c.399.4.811.787 1.2 1.177a.254.254 0 0 0 .319.032l1.184-.771c.264.142.541.26.835.35l.278 1.375a.254.254 0 0 0 .246.206h1.686a.254.254 0 0 0 .246-.206l.278-1.376c.294-.09.57-.207.835-.35l1.184.772c.1.065.233.052.318-.032.39-.39.802-.777 1.2-1.177a.254.254 0 0 0 .032-.326l-.802-1.184c.14-.263.26-.538.35-.827l1.406-.31a.254.254 0 0 0 .207-.246V6.264a.254.254 0 0 0-.207-.255l-1.407-.302a4.83 4.83 0 0 0-.35-.835l.803-1.184a.254.254 0 0 0-.031-.318c-.399-.4-.811-.794-1.2-1.184a.254.254 0 0 0-.319-.032l-1.184.779a4.655 4.655 0 0 0-.835-.358L22.48 1.2A.254.254 0 0 0 22.233 1h-1.686a.254.254 0 0 0-.047 0zm.254.509h1.272l.262 1.304c.02.092.091.166.183.19.363.096.697.244 1.018.43.084.049.189.046.27-.008l1.12-.732c.302.298.61.59.907.883l-.755 1.12a.254.254 0 0 0-.008.27c.181.314.332.667.429 1.026a.254.254 0 0 0 .19.183l1.336.294v1.24l-1.335.294a.254.254 0 0 0-.191.183 4.323 4.323 0 0 1-.43 1.026.254.254 0 0 0 .009.27l.755 1.12c-.297.293-.605.586-.906.883l-1.121-.731a.254.254 0 0 0-.27-.008c-.321.186-.655.333-1.018.43a.254.254 0 0 0-.183.198l-.262 1.304h-1.272l-.262-1.304a.254.254 0 0 0-.183-.199 4.123 4.123 0 0 1-1.018-.43.254.254 0 0 0-.27.009l-1.12.731c-.302-.297-.61-.59-.907-.882l.755-1.121a.254.254 0 0 0 .008-.27 4.323 4.323 0 0 1-.43-1.026.254.254 0 0 0-.19-.183l-1.335-.294V6.47l1.335-.294a.254.254 0 0 0 .19-.183c.098-.359.248-.712.43-1.025a.254.254 0 0 0-.008-.27l-.755-1.121c.297-.293.605-.585.906-.883l1.121.732a.254.254 0 0 0 .27.008c.321-.186.655-.334 1.018-.43a.254.254 0 0 0 .183-.19l.262-1.304zm.636 3.792c-.984 0-1.789.804-1.789 1.788s.805 1.789 1.789 1.789c.984 0 1.789-.805 1.789-1.789 0-.984-.805-1.788-1.79-1.788zm0 .508a1.28 1.28 0 1 1 0 2.56 1.28 1.28 0 0 1 0-2.56z"/>
        <path d="M15.214 19.143a.643.643 0 1 1-1.285 0 6.214 6.214 0 1 0-12.429 0 .643.643 0 1 1-1.286 0 7.5 7.5 0 0 1 15 0zm-7.5-7.929a4.5 4.5 0 1 1 0-9 4.5 4.5 0 0 1 0 9zm0-1.285a3.214 3.214 0 1 0 0-6.429 3.214 3.214 0 0 0 0 6.429z"/>
    </g>
</svg>
