<svg xmlns="http://www.w3.org/2000/svg" width="16" height="18" viewBox="0 0 16 18">
    <g fill="#434343" fill-rule="nonzero" stroke="#434343" stroke-width=".5">
        <path d="M14.63 9.953c-.315-.735-.8-.89-1.15-.89h-3.015c-.012-.781-.065-2.892-.288-3.825-.203-.846-.974-1.147-1.574-1.147-.586 0-.995.263-.995.64 0 2.083-.537 4.332-1.404 4.332H5.178v-.2a.296.296 0 0 0-.297-.297H1.326a.296.296 0 0 0-.296.296v7.704c0 .164.132.296.296.296H4.88a.296.296 0 0 0 .297-.296v-.296h7.64c1.375 0 2.108-2.623 2.108-4.516 0-.725-.103-1.348-.296-1.8zM4.585 16.27H1.622V9.159h2.963v7.11zm8.233-.593h-7.64v-6.02h1.026c1.565 0 1.99-3.051 1.997-4.885.048-.033.184-.088.402-.088.14 0 .84.034.998.692.254 1.066.275 3.957.275 3.986.001.163.133.294.296.294h3.307c.094 0 .379 0 .606.53.162.38.248.922.248 1.568 0 1.943-.764 3.923-1.515 3.923zM10.778 4.714c0 .164.132.297.296.297h1.185a.296.296 0 1 0 0-.593h-1.185a.296.296 0 0 0-.296.296zM5.148 5.01h1.185a.296.296 0 0 0 0-.592H5.148a.296.296 0 0 0 0 .593zM8.704 2.64A.296.296 0 0 0 9 2.344V1.159a.296.296 0 1 0-.593 0v1.185c0 .164.133.296.297.296zM6.818 3.248a.295.295 0 0 0 .419 0 .296.296 0 0 0 0-.42l-.838-.838a.296.296 0 1 0-.42.42l.84.838zM10.38 3.334a.295.295 0 0 0 .21-.086l.837-.839a.296.296 0 1 0-.419-.419l-.838.839a.296.296 0 0 0 .21.505z"/>
    </g>
</svg>
