<svg xmlns="http://www.w3.org/2000/svg" width="25" height="25" viewBox="0 0 25 25">
    <path fill="#E93936" fill-rule="nonzero" d="M11.62.312c-.386.033-.859.09-1.16.141a12.023 12.023 0 0 0-9.39 7.96 12.692 12.692 0 0 0-.584 2.614c-.06.507-.06 2.05 0 2.556.333 2.781 1.467 5.18 3.37 7.126 1.953 1.999 4.44 3.207 7.307 3.549.507.06 2.05.06 2.556 0 2.866-.342 5.353-1.55 7.308-3.549 1.902-1.946 3.036-4.345 3.368-7.126.061-.507.061-2.049 0-2.556-.332-2.781-1.466-5.18-3.368-7.126C19.077 1.906 16.579.692 13.73.354c-.3-.036-1.828-.066-2.111-.042zm2.322 9.742v3.752H10.94V6.301h3.002v3.753zm-1.138 5.314c.511.121.945.554 1.08 1.076a1.89 1.89 0 0 1 0 .727 1.523 1.523 0 0 1-1.08 1.08c-.079.02-.238.036-.363.036-.425 0-.746-.133-1.046-.433-.3-.3-.434-.622-.434-1.046 0-.402.131-.733.401-1.017.38-.4.9-.552 1.442-.423z"/>
</svg>
