<svg xmlns="http://www.w3.org/2000/svg" width="10" height="16" viewBox="0 0 10 16">
    <g fill="#434343" fill-rule="nonzero">
        <path d="M4.605 5.86c1.13-1.008 1.81-1.901 1.871-2.202l-3.738-.004c.07.312.75 1.21 1.867 2.206z"/>
        <path d="M8.42 3.676V.966h.794V.036H0v.928h.794v2.711c0 1.365 2.103 3.242 3.154 4.095-1.05.853-3.154 2.73-3.154 4.094v2.711H0v.928h9.214v-.928h-.795v-2.71c0-1.366-2.102-3.242-3.154-4.095C6.317 6.918 8.42 5.04 8.42 3.676zm-.954 8.19v1.782H6.92c-.086-.31-.928-1.496-2.312-2.73-1.398 1.247-2.24 2.42-2.314 2.73h-.547v-1.783c0-.777 1.544-2.323 2.86-3.39 1.44 1.162 2.86 2.67 2.86 3.39zm-2.86-4.8c-1.44-1.161-2.859-2.669-2.859-3.39V1.893h5.72v1.783c0 .778-1.544 2.325-2.86 3.39z"/>
    </g>
</svg>
