<svg xmlns="http://www.w3.org/2000/svg" width="18" height="22" viewBox="0 0 18 22">
    <g fill="#094684" fill-rule="nonzero">
        <path stroke="#094684" stroke-width=".51" d="M2.967 2.265v6.628a.27.27 0 1 0 .54 0V2.265c0-.4.325-.724.724-.724h11.721c.4 0 .724.324.724.724v17.292c0 .4-.324.724-.724.725H4.232a.725.725 0 0 1-.725-.725v-1.704a.27.27 0 0 0-.54 0v1.704c0 .699.566 1.264 1.264 1.265h11.721c.698 0 1.264-.566 1.265-1.265V2.265C17.216 1.567 16.65 1 15.952 1H4.232c-.699 0-1.264.567-1.265 1.265z"/>
        <path stroke="#094684" stroke-width=".51" d="M6.08 5.053h8.023a.27.27 0 1 0 0-.54H6.08a.27.27 0 1 0 0 .54zM6.08 7.94h8.023a.27.27 0 1 0 0-.54H6.08a.27.27 0 1 0 0 .54zM14.103 11H9.496a.27.27 0 1 0 0 .54h4.607a.27.27 0 1 0 0-.54z"/>
        <path d="M6.978 9l-2.22 2.22-3.747 3.746L0 18l3.034-1.011L9 11.022 6.978 9zm-4.46 7.156l-1.01.337.336-1.012 3.588-3.587.674.674-3.587 3.588zm3.723-4.801l-.135-.135.872-.872.674.674-.872.872-.54-.54z"/>
    </g>
</svg>
