<svg xmlns="http://www.w3.org/2000/svg" width="22" height="22" viewBox="0 0 22 22">
    <g fill="#E3E3E4" fill-rule="nonzero" stroke="#E3E3E4">
        <path stroke-width=".51" d="M6.967 2.265v6.628a.27.27 0 1 0 .54 0V2.265c0-.4.325-.724.724-.724h11.721c.4 0 .724.324.724.724v17.292c0 .4-.324.724-.724.725H8.232a.725.725 0 0 1-.725-.725v-1.704a.27.27 0 0 0-.54 0v1.704c0 .699.566 1.264 1.264 1.265h11.721c.698 0 1.264-.566 1.265-1.265V2.265C21.216 1.567 20.65 1 19.952 1H8.232c-.699 0-1.264.567-1.265 1.265z"/>
        <path stroke-width=".5" d="M8.15 16.64a3.24 3.24 0 1 0-2.501-1.183l-4.567 4.439a.27.27 0 1 0 .377.388l4.567-4.44a3.23 3.23 0 0 0 2.124.797zM6.27 11.469a2.698 2.698 0 1 1-.054 3.816 2.69 2.69 0 0 1 .054-3.816z"/>
        <path stroke-width=".51" d="M10.08 5.053h8.023a.27.27 0 1 0 0-.54H10.08a.27.27 0 1 0 0 .54zM10.08 7.94h8.023a.27.27 0 1 0 0-.54H10.08a.27.27 0 1 0 0 .54zM12.356 10.828h5.747a.27.27 0 1 0 0-.541h-5.747a.27.27 0 0 0 0 .54zM18.103 13.174h-4.607a.27.27 0 1 0 0 .54h4.607a.27.27 0 1 0 0-.54zM18.103 16.061h-5.709a.27.27 0 0 0 0 .54h5.71a.27.27 0 1 0 0-.54z"/>
    </g>
</svg>
