<svg xmlns="http://www.w3.org/2000/svg" width="25" height="25" viewBox="0 0 25 25">
    <g fill="#FFF" fill-rule="nonzero" stroke="#FFF">
        <path stroke-width=".663" d="M7.981 2.48v7.755a.316.316 0 0 0 .633 0V2.48c0-.468.38-.847.847-.848h13.713c.468 0 .847.38.847.848v20.232c0 .468-.38.847-.847.847H9.46a.848.848 0 0 1-.847-.847v-1.994a.316.316 0 1 0-.633 0v1.994c.001.817.663 1.479 1.48 1.48h13.713c.817-.001 1.479-.663 1.48-1.48V2.48C24.653 1.663 23.99 1 23.174 1H9.46c-.817 0-1.479.663-1.48 1.48z"/>
        <path stroke-width=".65" d="M9.366 19.3a3.79 3.79 0 1 0-2.927-1.385l-5.343 5.193a.316.316 0 1 0 .441.454l5.343-5.194c.689.601 1.572.932 2.486.931zm-2.201-6.052a3.157 3.157 0 1 1-.064 4.464 3.146 3.146 0 0 1 .064-4.464z"/>
        <path stroke-width=".663" d="M11.624 5.742h9.387a.316.316 0 1 0 0-.632h-9.387a.316.316 0 1 0 0 .632zM11.624 9.12h9.387a.316.316 0 0 0 0-.632h-9.387a.316.316 0 0 0 0 .632zM14.287 12.498h6.724a.316.316 0 1 0 0-.632h-6.724a.316.316 0 1 0 0 .632zM21.011 15.244h-5.39a.316.316 0 1 0 0 .632h5.39a.316.316 0 1 0 0-.632zM21.011 18.622h-6.68a.316.316 0 0 0 0 .632h6.68a.316.316 0 1 0 0-.632z"/>
    </g>
</svg>
