<svg xmlns="http://www.w3.org/2000/svg" width="17" height="12" viewBox="0 0 17 12">
    <path fill="#003087" fill-rule="evenodd" d="M2.298 9.6c-.223.01-.416.21-.406.419.011.21.223.39.445.381h12.326c.224.003.43-.189.43-.4 0-.211-.206-.403-.43-.4H2.298zm0-1.6c-.223.01-.416.21-.406.419.011.21.223.39.445.381h12.326c.224.003.43-.189.43-.4 0-.211-.206-.403-.43-.4H2.298zm11.09-5.2c.357 0 .637.264.637.6 0 .336-.28.6-.637.6-.358 0-.638-.264-.638-.6 0-.336.28-.6.638-.6zm-2.125 0c.357 0 .637.264.637.6 0 .336-.28.6-.637.6-.358 0-.638-.264-.638-.6 0-.336.28-.6.638-.6zm0-.8c-.817 0-1.488.631-1.488 1.4 0 .768.67 1.4 1.488 1.4a1.53 1.53 0 0 0 1.062-.425c.27.261.648.425 1.063.425.816 0 1.487-.632 1.487-1.4 0-.769-.671-1.4-1.487-1.4-.415 0-.792.164-1.063.425A1.53 1.53 0 0 0 11.263 2zM2.298 2c-.223.01-.416.21-.406.419.011.21.223.39.445.381h2.976c.224.003.43-.189.43-.4 0-.211-.206-.403-.43-.4H2.298zM1.7 0C1.206 0 .749.17.445.5.141.83 0 1.286 0 1.8v8.4c0 .514.141.963.445 1.294.304.33.761.506 1.255.506h13.6c.494 0 .951-.176 1.255-.506.304-.33.445-.78.445-1.294V6.8c.003-.211-.2-.406-.425-.406-.225 0-.428.195-.425.406v3.4c0 .379-.098.622-.232.769-.135.146-.317.231-.618.231H1.7c-.302 0-.483-.085-.618-.231-.134-.147-.232-.39-.232-.769V1.8c0-.379.098-.629.232-.775C1.217.878 1.398.8 1.7.8h13.6c.301 0 .483.078.618.225.134.146.232.396.232.775v3.4c-.003.211.2.406.425.406.224 0 .428-.195.425-.406V1.8c0-.514-.141-.97-.445-1.3-.304-.33-.761-.5-1.255-.5H1.7z" opacity=".8"/>
</svg>
