<svg xmlns="http://www.w3.org/2000/svg" width="32" height="27" viewBox="0 0 32 27">
    <g fill="#FFF" fill-rule="nonzero">
        <path d="M17.876 13.376A6.623 6.623 0 0 0 24 9.25a6.736 6.736 0 0 0-1.435-7.29 6.577 6.577 0 0 0-7.22-1.45c-2.476 1.036-4.089 3.477-4.087 6.183.005 3.689 2.965 6.678 6.62 6.683zm0-12.486a5.747 5.747 0 0 1 5.313 3.579c.89 2.168.4 4.665-1.243 6.325a5.706 5.706 0 0 1-6.264 1.26 5.804 5.804 0 0 1-3.548-5.361 5.832 5.832 0 0 1 1.678-4.108A5.719 5.719 0 0 1 17.876.881V.89z"/>
        <path d="M17.876 9.534a1.22 1.22 0 0 1-1.21-1.221h-.806a2.04 2.04 0 0 0 1.613 1.996v.788h.81v-.788a2.04 2.04 0 0 0 1.508-2.185 2.03 2.03 0 0 0-1.915-1.83 1.216 1.216 0 0 1-1.205-1.224 1.216 1.216 0 0 1 1.211-1.219c.668 0 1.208.548 1.208 1.222h.807a2.04 2.04 0 0 0-1.613-1.997v-.81h-.811v.788a2.038 2.038 0 0 0-1.592 2.201 2.028 2.028 0 0 0 1.995 1.836c.668 0 1.21.547 1.21 1.222 0 .674-.542 1.221-1.21 1.221zM29.865 17.537c-.13 0-.259.013-.386.04a.195.195 0 0 1-.048 0 1.51 1.51 0 0 0-.25.084l-6.65 2.213c.021-.11.033-.22.036-.332a1.841 1.841 0 0 0-1.824-1.846h-4.467a4.37 4.37 0 0 0-3.774-2.178H6.685V14.16a.44.44 0 0 0-.438-.443H.438A.44.44 0 0 0 0 14.16V24.6a.44.44 0 0 0 .438.443h5.809a.44.44 0 0 0 .438-.443v-.885l8.956 2.718a4.86 4.86 0 0 0 4.252-.47l10.634-4.873a1.85 1.85 0 0 0 1.072-2.049 1.833 1.833 0 0 0-1.756-1.492l.022-.013zm-24.04 6.64H.878v-9.575h4.931l.018 9.574zm24.316-3.856l-10.56 4.869h-.04a3.99 3.99 0 0 1-3.541.403l-9.315-2.78v-6.4h5.817a3.46 3.46 0 0 1 2.801 1.416c.112.153.213.314.302.483a.438.438 0 0 0 .404.274h4.708a.956.956 0 0 1 .947.96.951.951 0 0 1-.307.709.916.916 0 0 1-.64.247h-8.04a.44.44 0 0 0-.438.443.44.44 0 0 0 .438.443h8.048c.366 0 .723-.115 1.022-.328l7.89-2.616a.738.738 0 0 1 .228-.022c.524 0 .949.427.951.956a.977.977 0 0 1-.692.925l.017.018z"/>
    </g>
</svg>
