<?xml version="1.0" encoding="UTF-8"?>
<svg width="25px" height="25px" viewBox="0 0 25 25" version="1.1" xmlns="http://www.w3.org/2000/svg" xmlns:xlink="http://www.w3.org/1999/xlink">
    <!-- Generator: Sketch 56 (81588) - https://sketch.com -->
    <title>Group 14</title>
    <desc>Created with Sketch.</desc>
    <g id="Letter-Of-Credit-v-01" stroke="none" stroke-width="1" fill="none" fill-rule="evenodd">
        <g id="Group-14" fill-rule="nonzero">
            <path d="M12.1593515,0.00269929057 C5.28942946,0.144055712 -0.138657131,5.79831257 0.00269929057,12.6682347 C0.144055712,19.5381568 5.82658386,24.9662433 12.6682347,24.8248869 C19.5381568,24.6835305 24.9662433,19.0010023 24.8248869,12.1593515 C24.6835305,5.28942946 19.0292736,-0.138657131 12.1593515,0.00269929057 Z" id="Path-Copy-12" fill="#FEC708"></path>
            <g id="noun_comment_1696915-(2)-copy-3" transform="translate(5.586207, 7.295528)" fill="#FFFFFF">
                <path d="M12.5498896,0 L0.487292056,0 C0.328673278,0 0.200087353,0.128585926 0.200087353,0.287204703 L0.200087353,8.9033458 C0.200087353,9.06196457 0.328673278,9.1905505 0.487292056,9.1905505 L4.2209532,9.1905505 L4.2209532,11.2009834 C4.22202021,11.3151074 4.28926918,11.4182225 4.39327602,11.4652117 C4.43108517,11.4738293 4.47034875,11.4738293 4.5081579,11.4652117 C4.58003184,11.4641576 4.64921451,11.4377054 4.7034571,11.3905385 L7.09300023,9.1905505 L12.5498896,9.1905505 C12.7085084,9.1905505 12.8370943,9.06196457 12.8370943,8.9033458 L12.8370943,0.287204703 C12.8370943,0.128585926 12.7085084,0 12.5498896,0 Z M4.2209532,5.16968466 C3.90371564,5.16968466 3.64654379,4.91251281 3.64654379,4.59527525 C3.64654379,4.27803769 3.90371564,4.02086584 4.2209532,4.02086584 C4.53819075,4.02086584 4.7953626,4.27803769 4.7953626,4.59527525 C4.7953626,4.91251281 4.53819075,5.16968466 4.2209532,5.16968466 Z M6.51859082,5.16968466 C6.20135327,5.16968466 5.94418141,4.91251281 5.94418141,4.59527525 C5.94418141,4.27803769 6.20135327,4.02086584 6.51859082,4.02086584 C6.83582838,4.02086584 7.09300023,4.27803769 7.09300023,4.59527525 C7.09300023,4.91251281 6.83582838,5.16968466 6.51859082,5.16968466 Z M8.81622845,5.16968466 C8.49899089,5.16968466 8.24181904,4.91251281 8.24181904,4.59527525 C8.24181904,4.27803769 8.49899089,4.02086584 8.81622845,4.02086584 C9.133466,4.02086584 9.39063785,4.27803769 9.39063785,4.59527525 C9.39063785,4.91251281 9.133466,5.16968466 8.81622845,5.16968466 Z" id="Shape"></path>
            </g>
        </g>
    </g>
</svg>