<svg xmlns="http://www.w3.org/2000/svg" width="23" height="23" viewBox="0 0 23 23">
    <g fill="#094684" fill-rule="nonzero" stroke="#094684" stroke-width=".2">
        <path d="M19.828 6.793a3.676 3.676 0 0 0-5.222-3.28.362.362 0 1 0 .305.657c.386-.18.807-.274 1.234-.273a2.932 2.932 0 0 1 2.958 2.896h-1.448l1.81 2.173 1.81-2.173h-1.447zM7.517 14.034a6.517 6.517 0 1 1 6.517-6.517.362.362 0 0 1-.724 0 5.793 5.793 0 1 0-5.793 5.793.362.362 0 0 1 0 .724z"/>
        <path d="M15.483 9.69a5.793 5.793 0 1 1-5.793 5.793 5.8 5.8 0 0 1 5.793-5.793zm0-.724a6.517 6.517 0 1 0 0 13.034 6.517 6.517 0 0 0 0-13.034zM9.328 9.69H6.956c.24-.313.372-.693.38-1.086a2.247 2.247 0 0 0-.032-.362h.937a.362.362 0 1 0 0-.724H7.107c-.018-.053-.035-.106-.054-.158a3.399 3.399 0 0 1-.26-1.11.997.997 0 0 1 1.086-.905c.437-.009.862.147 1.19.435a.362.362 0 0 0 .519-.506 2.482 2.482 0 0 0-1.709-.653 1.709 1.709 0 0 0-1.81 1.63c.017.434.11.863.273 1.267h-.273a.362.362 0 0 0 0 .724h.496c.029.118.044.24.047.362-.07.47-.339.887-.739 1.144a.362.362 0 0 0 .196.666h3.259a.362.362 0 1 0 0-.724z"/>
        <path d="M16.893 14.799a.347.347 0 0 0 .352-.342v-.342c0-.567-.473-1.026-1.057-1.026h-.353v-.342a.347.347 0 0 0-.352-.342.347.347 0 0 0-.353.342v.342h-.352c-.584 0-1.058.46-1.058 1.026v.684c0 .566.474 1.026 1.058 1.026h1.41c.194 0 .352.153.352.342v.684a.347.347 0 0 1-.352.342h-1.41a.347.347 0 0 1-.353-.342v-.342a.347.347 0 0 0-.352-.342.347.347 0 0 0-.353.342v.342c0 .566.474 1.025 1.058 1.025h.352v.342c0 .19.158.342.353.342a.347.347 0 0 0 .352-.342v-.342h.353c.584 0 1.057-.459 1.057-1.025v-.684c0-.567-.473-1.026-1.057-1.026h-1.41a.347.347 0 0 1-.353-.342v-.684c0-.189.158-.342.353-.342h1.41c.194 0 .352.153.352.342v.342c0 .189.158.342.353.342z"/>
    </g>
</svg>
