<?xml version="1.0" encoding="UTF-8"?>
<svg width="16px" height="17px" viewBox="0 0 16 17" version="1.1" xmlns="http://www.w3.org/2000/svg" xmlns:xlink="http://www.w3.org/1999/xlink">
    <!-- Generator: Sketch 56 (81588) - https://sketch.com -->
    <title>noun_Delete_2370137</title>
    <desc>Created with Sketch.</desc>
    <g id="Letter-Of-Credit-v-01" stroke="none" stroke-width="1" fill="none" fill-rule="evenodd">
        <g id="LC_Maker_4-Group-B" transform="translate(-1237.000000, -566.000000)" fill="#004589" fill-rule="nonzero">
            <g id="Group-2" transform="translate(919.000000, 351.000000)">
                <g id="Group-50" transform="translate(295.000000, 0.000000)">
                    <g id="Group-49">
                        <g id="noun_Delete_2370137" transform="translate(23.285714, 215.000000)">
                            <g id="Group" transform="translate(0.000000, 0.165087)">
                                <path d="M4.66091168,0.136904762 L4.66091168,2.45515143 L0.0244037543,2.45515143 L0.0244037543,3.61428571 L1.23333843,3.61428571 L2.39246527,16.3646752 L12.7249929,16.3646752 L13.8841198,3.61428571 L15.0930545,3.61428571 L15.0930545,2.45515143 L10.4565465,2.45515143 L10.4565465,0.136904762 L4.66091168,0.136904762 Z M5.82003851,1.29601714 L9.29741969,1.29601714 L9.29741969,2.45515143 L5.82003851,2.45515143 L5.82003851,1.29601714 Z M2.39812195,3.61428571 L12.7193362,3.61428571 L11.6654813,15.205541 L3.45197691,15.205541 L2.39812195,3.61428571 Z M5.2404751,5.35297619 L5.2404751,13.4668505 L6.39960215,13.4668505 L6.39960215,5.35297619 L5.2404751,5.35297619 Z M8.71785605,5.35297619 L8.71785605,13.4668505 L9.8769831,13.4668505 L9.8769831,5.35297619 L8.71785605,5.35297619 Z" id="Shape"></path>
                            </g>
                        </g>
                    </g>
                </g>
            </g>
        </g>
    </g>
</svg>