<svg xmlns="http://www.w3.org/2000/svg" width="18" height="20" viewBox="0 0 18 20">
    <g fill="#003087" fill-rule="evenodd" opacity=".8">
        <path d="M4.543 11.924c2.118 0 3.842 1.66 3.842 3.7s-1.724 3.7-3.842 3.7c-2.118 0-3.84-1.66-3.84-3.7s1.722-3.7 3.84-3.7m4.531-6.247c2.559 0 4.132.787 4.142 1.355v.014c-.016.567-1.588 1.352-4.141 1.352-2.547 0-4.116-.78-4.14-1.347v-.025c.02-.567 1.59-1.35 4.14-1.35m1.01 11.246c-.054.006-.108.01-.17.014l-.241.016-.029.001-.108.004a5.165 5.165 0 0 1-.24.009c-.072.002-.142.002-.214.002l-.216-.003c.11-.33.178-.676.204-1.034h.004c.182 0 .362-.004.539-.012a.343.343 0 0 0 .334-.353.347.347 0 0 0-.366-.323c-.169.008-.342.01-.514.01a4.193 4.193 0 0 0-.228-1.041c.078 0 .154.003.235.003 1.667 0 3.179-.33 4.051-.883l.02-.012.012-.008c.049-.032.091-.064.135-.096a5.242 5.242 0 0 1-.069.611.33.33 0 0 0-.008.072v.004c-.007.242-.289.458-.456.566l-.017.011-.001.001c-.457.29-1.178.522-2.03.653a.34.34 0 0 0-.29.387.348.348 0 0 0 .402.28c.96-.147 1.758-.409 2.3-.752a.43.43 0 0 0 .03-.021c.052-.033.095-.066.14-.1-.015.338-.072.633-.072.637-.003.014-.003.029-.004.043l-.001.01c-.016.503-1.186 1.128-3.132 1.304m2.022-5.193a.354.354 0 0 0-.436-.229c-.75.213-1.648.326-2.596.326-1.52 0-2.932-.3-3.683-.783l-.002-.001c-.2-.13-.437-.332-.455-.566v-.011c0-.011-.003-.022-.004-.033 0-.006 0-.012-.002-.018v-.004l-.004-.02a5.058 5.058 0 0 1-.067-.601c.04.03.079.06.125.09a.36.36 0 0 0 .488-.09.33.33 0 0 0-.094-.47c-.162-.106-.43-.315-.442-.55v-.01l-.003-.036c-.001-.008 0-.017-.003-.025 0-.004-.054-.289-.07-.619.889.652 2.587.995 4.215.995 1.63 0 3.33-.344 4.218-.996a5.05 5.05 0 0 1-.071.621l-.002.013a.376.376 0 0 0-.002.022l-.002.027c-.004.179-.165.38-.456.566-.749.484-2.16.785-3.685.785-1.058 0-2.074-.145-2.859-.407a.354.354 0 0 0-.447.208.336.336 0 0 0 .217.43c.857.287 1.954.445 3.09.445 1.68 0 3.204-.336 4.074-.899.053-.033.097-.068.143-.102a4.997 4.997 0 0 1-.067.601l-.004.027v.003a.296.296 0 0 0-.006.048v.008c-.002.177-.165.379-.457.568a2.46 2.46 0 0 1-.177.103.332.332 0 0 0-.135.46.354.354 0 0 0 .307.174.363.363 0 0 0 .17-.043 3.288 3.288 0 0 0 .24-.142c.046-.03.087-.062.129-.092a5.246 5.246 0 0 1-.068.61.313.313 0 0 0-.009.071v.003c-.003.176-.158.373-.437.556l-.022.013c-.746.483-2.157.783-3.682.783-.19 0-.372-.006-.546-.014a4.427 4.427 0 0 0-.907-1.11c.462.057.95.088 1.453.088 1.015 0 1.981-.122 2.795-.353a.336.336 0 0 0 .238-.42M4.543 20c1.754 0 3.275-.963 4.033-2.367.169.007.336.011.499.011.08 0 .16 0 .246-.002a5.83 5.83 0 0 0 .254-.01 2.474 2.474 0 0 0 .14-.004l.248-.017c.064-.004.125-.01.203-.016 2.211-.2 3.668-.946 3.746-1.907.005-.024.088-.46.088-.92 0-.365-.052-.72-.078-.865.064-.383.078-.68.078-.86 0-.18-.014-.472-.077-.86.063-.381.077-.677.077-.858 0-.371-.053-.722-.076-.856.024-.143.076-.487.076-.849 0-.37-.054-.72-.078-.858.024-.136.078-.487.078-.858 0-.394-.061-.767-.082-.883C13.898 5.708 11.413 5 9.075 5c-2.346 0-4.839.712-4.845 2.033a5.386 5.386 0 0 0-.078.869c0 .37.053.721.076.858a5.38 5.38 0 0 0-.076.858c0 .368.052.716.076.855-.023.13-.071.45-.076.794C1.829 11.459 0 13.338 0 15.624 0 18.037 2.038 20 4.543 20"/>
        <path d="M3.967 15.814H4c.132 0 .257.073.336.195a.528.528 0 0 1 .06.419.443.443 0 0 1-.298.313.321.321 0 0 1-.096.012c-.179 0-.338-.13-.395-.323a.273.273 0 0 0-.258-.206.268.268 0 0 0-.224.131c-.053.085-.108.182-.082.27.087.31.362.581.58.703l.012.007v.352c0 .166.204.313.365.313.16 0 .365-.147.365-.313v-.352l.013-.007a1.26 1.26 0 0 0 .555-.62c.117-.316.08-.724-.101-1.091a.919.919 0 0 0-.803-.495H4c-.16 0-.277-.06-.346-.18a.49.49 0 0 1-.033-.43.414.414 0 0 1 .29-.264c.029-.007.057-.007.085-.007.18 0 .34.13.397.325.035.124.14.21.256.21a.27.27 0 0 0 .227-.13c.043-.073.11-.181.083-.272-.098-.335-.402-.6-.582-.697l-.012-.007v-.36c0-.164-.204-.31-.365-.31s-.365.146-.365.31v.36l-.013.007a1.23 1.23 0 0 0-.559.633c-.117.332-.07.716.134 1.082.147.264.435.422.77.422M.337 9h2.326C2.85 9 3 8.776 3 8.5S2.85 8 2.663 8H.337C.15 8 0 8.224 0 8.5s.15.5.337.5M15 8.5c0 .276.15.5.337.5h2.326c.186 0 .337-.224.337-.5s-.15-.5-.337-.5h-2.326c-.186 0-.337.224-.337.5M3.085 3.085a.29.29 0 0 0 0 .41l1.42 1.42a.29.29 0 0 0 .41 0 .29.29 0 0 0 0-.41l-1.42-1.42a.29.29 0 0 0-.41 0M8 .337v2.326c0 .186.224.337.5.337s.5-.15.5-.337V.337C9 .15 8.776 0 8.5 0S8 .15 8 .337M14.915 3.085a.29.29 0 0 0-.41 0l-1.42 1.42a.29.29 0 1 0 .41.41l1.42-1.42a.29.29 0 0 0 0-.41"/>
    </g>
</svg>
