<?xml version="1.0" encoding="UTF-8"?>
<svg width="16px" height="16px" viewBox="0 0 16 16" version="1.1" xmlns="http://www.w3.org/2000/svg" xmlns:xlink="http://www.w3.org/1999/xlink">
    <!-- Generator: Sketch 56 (81588) - https://sketch.com -->
    <title>Group 89</title>
    <desc>Created with Sketch.</desc>
    <g id="Letter-Of-Credit-v-01" stroke="none" stroke-width="1" fill="none" fill-rule="evenodd">
        <g id="Group-89" transform="translate(1.000000, 0.687209)" fill="#434343" fill-rule="nonzero" stroke="#434343" stroke-width="0.2">
            <rect id="Rectangle" x="3.43604651" y="-4.6629367e-13" width="1" height="3.59302326"></rect>
            <rect id="Rectangle" x="8.52906977" y="-4.6629367e-13" width="1" height="3.59302326"></rect>
            <path d="M7.27325581,12.0697674 L7.15116279,12.0697674 C7.15116279,12.0872093 7.16860465,12.1046512 7.16860465,12.1046512 C7.30813953,12.4186047 7.48255814,12.6976744 7.69186047,12.9593023 L7.83139535,12.9593023 C7.60465116,12.7151163 7.4127907,12.4011628 7.27325581,12.0697674 Z M11.9651163,6.87209302 L11.9651163,6.99418605 C12.2965116,7.09883721 12.5930233,7.25581395 12.872093,7.44767442 L12.872093,7.30813953 C12.5930233,7.13372093 12.3139535,6.97674419 12,6.87209302 C12,6.88953488 11.9825581,6.87209302 11.9651163,6.87209302 Z M10.0639535,1.60465116 L10.0639535,2.51162791 L11.9825581,2.51162791 L11.9825581,4.81395349 L0.906976744,4.81395349 L0.906976744,2.51162791 L2.8255814,2.51162791 L2.8255814,1.60465116 L-1.8642865e-12,1.60465116 L-1.8642865e-12,12.9767442 L6.59302326,12.9767442 C6.50581395,12.8197674 6.41860465,12.6453488 6.33139535,12.4709302 C6.27906977,12.3313953 6.22674419,12.2093023 6.1744186,12.0697674 L0.906976744,12.0697674 L0.906976744,5.72093023 L11.9651163,5.72093023 L11.9651163,5.94767442 C12.0697674,5.98255814 12.1918605,6.01744186 12.2965116,6.05232558 C12.4883721,6.12209302 12.6802326,6.19186047 12.872093,6.29651163 L12.872093,1.60465116 L10.0639535,1.60465116 Z" id="Shape"></path>
            <rect id="Rectangle" x="4.97093023" y="1.60465116" width="2.93023256" height="1"></rect>
            <path d="M10.7267442,14.7209302 C9.48837209,14.7209302 8.3372093,14.1802326 7.53488372,13.2383721 C7.27325581,12.9244186 7.06395349,12.5930233 6.90697674,12.2267442 C6.68023256,11.7034884 6.55813953,11.127907 6.55813953,10.5523256 C6.55813953,8.25 8.4244186,6.38372093 10.7267442,6.38372093 C11.1976744,6.38372093 11.6686047,6.45348837 12.1046512,6.61046512 C12.4534884,6.73255814 12.7848837,6.90697674 13.0988372,7.11627907 C14.2151163,7.90116279 14.8953488,9.1744186 14.8953488,10.5348837 C14.877907,12.8546512 13.0116279,14.7209302 10.7267442,14.7209302 Z M10.7267442,7.16860465 C8.86046512,7.16860465 7.34302326,8.68604651 7.34302326,10.5523256 C7.34302326,11.0232558 7.44767442,11.494186 7.63953488,11.9127907 C7.76162791,12.2093023 7.93604651,12.4709302 8.14534884,12.7151163 C8.79069767,13.4825581 9.73255814,13.9360465 10.744186,13.9360465 C12.6104651,13.9360465 14.127907,12.4186047 14.127907,10.5523256 C14.127907,9.43604651 13.5872093,8.40697674 12.6627907,7.76162791 C12.4186047,7.5872093 12.1395349,7.44767442 11.8604651,7.34302326 C11.4767442,7.23837209 11.1104651,7.16860465 10.7267442,7.16860465 Z" id="Shape"></path>
            <path d="M11.2151163,10.5523256 L12.4534884,9.31395349 C12.505814,9.26162791 12.505814,9.19186047 12.4534884,9.13953488 L12.122093,8.8255814 C12.0697674,8.77325581 12,8.77325581 11.9476744,8.8255814 L10.7267442,10.0639535 L9.48837209,8.8255814 C9.43604651,8.77325581 9.36627907,8.77325581 9.31395349,8.8255814 L8.98255814,9.15697674 C8.93023256,9.20930233 8.93023256,9.27906977 8.98255814,9.33139535 L10.2209302,10.5697674 L8.98255814,11.8081395 C8.93023256,11.8604651 8.93023256,11.9302326 8.98255814,11.9825581 L9.31395349,12.3139535 C9.36627907,12.3662791 9.43604651,12.3662791 9.48837209,12.3139535 L10.7267442,11.0755814 L11.9651163,12.3139535 C12.0174419,12.3662791 12.0872093,12.3662791 12.1395349,12.3139535 L12.4709302,11.9825581 C12.5232558,11.9302326 12.5232558,11.8604651 12.4709302,11.8081395 L11.2151163,10.5523256 Z" id="Path"></path>
        </g>
    </g>
</svg>