<svg xmlns="http://www.w3.org/2000/svg" width="60" height="37" viewBox="0 0 60 37">
    <g fill="none" fill-rule="evenodd">
        <path fill="#DA291C" d="M60 0L42.857 9.57h6.865c-3.546 7.736-2.81 16.803 1.927 23.838C49.605 20.925 54.611 8.838 60 0"/>
        <path fill="#FFF" d="M2.367 36.288h.63v-2.825h-.63v2.825zm-.081-3.669c0-.196.168-.363.4-.363.225 0 .4.167.4.363 0 .197-.175.365-.4.365-.232 0-.4-.168-.4-.365zM3.429 33.455h.433v.295c.13-.203.303-.342.532-.342.06 0 .13.018.177.035v.528a.663.663 0 0 0-.22-.041c-.238 0-.373.11-.485.238v2.12H3.43v-2.833zM5.143 36.134v-.456c.167.08.464.165.703.165.334 0 .495-.12.495-.377 0-.233-.161-.296-.474-.416-.375-.12-.72-.336-.72-.838 0-.553.371-.804.913-.804.266 0 .516.063.641.12v.462a1.562 1.562 0 0 0-.62-.137c-.292 0-.433.113-.433.32 0 .205.13.284.459.398.354.126.75.308.75.861 0 .536-.375.856-.932.856-.303 0-.6-.063-.782-.154M7.249 35.516v-1.56h-.392v-.407h.398l.105-.717h.48v.717h.655v.408H7.84v1.477c0 .281.105.402.369.402.146 0 .275-.033.362-.066v.44a1.637 1.637 0 0 1-.497.078c-.545 0-.825-.21-.825-.772M12.016 35.012l-.358-.998a8.681 8.681 0 0 1-.226-.682h-.012c-.048.166-.15.449-.233.682l-.376.998h1.205zm-.925-2.18h.717l1.335 3.456h-.68l-.286-.804h-1.532l-.299.804h-.632l1.377-3.456zM14.845 34.811c0-.568-.164-.996-.677-.996a.73.73 0 0 0-.474.17v1.77c.114.04.272.064.42.064.512 0 .73-.434.73-1.008m-1.701 1.283v-3.838h.55v1.342a.862.862 0 0 1 .645-.27c.774 0 1.09.65 1.09 1.454 0 .826-.463 1.506-1.325 1.506-.36 0-.715-.088-.96-.194M16 35.286v-1.878h.58v1.785c0 .394.122.626.545.626.227 0 .435-.105.575-.197v-2.214h.586v2.834h-.58v-.226c-.14.11-.412.272-.783.272-.69 0-.923-.429-.923-1.002M21.054 35.81c.939 0 1.17-.582 1.17-1.247 0-.666-.22-1.265-1.136-1.265H20.6v2.513h.455zM20 32.833h1.158c1.233 0 1.7.832 1.7 1.73 0 .85-.45 1.726-1.718 1.726H20v-3.456zM23.429 32.256h.574v1.364c.145-.113.412-.279.783-.279.69 0 .928.439.928 1.026v1.921h-.586v-1.826c0-.403-.116-.64-.54-.64-.231 0-.44.106-.573.2v2.266h-.586v-4.032z"/>
        <path fill="#FFF" d="M27.162 35.667v-.65c-.038 0-.135-.006-.205-.006-.448 0-.692.131-.692.445 0 .257.162.399.432.399.2 0 .368-.086.465-.188m.07.308c-.118.16-.378.313-.691.313-.498 0-.827-.296-.827-.787 0-.576.46-.855 1.19-.855.085 0 .188.006.258.011v-.222c0-.4-.151-.565-.54-.565-.276 0-.508.086-.665.16v-.468c.184-.08.454-.154.762-.154.622 0 .99.28.99.93v1.266c0 .177.075.234.193.234a.608.608 0 0 0 .098-.012v.4a.686.686 0 0 1-.309.062.456.456 0 0 1-.458-.313"/>
        <path fill="#FFF" d="M29.702 34.811c0-.568-.163-.996-.676-.996a.728.728 0 0 0-.475.17v1.77c.115.04.273.064.42.064.513 0 .731-.434.731-1.008M28 36.094v-3.838h.551v1.342a.86.86 0 0 1 .644-.27c.775 0 1.09.65 1.09 1.454 0 .826-.463 1.506-1.325 1.506-.36 0-.714-.088-.96-.194M30.938 36.288h.632v-2.825h-.632v2.825zm-.08-3.669c0-.196.168-.363.4-.363.224 0 .4.167.4.363 0 .197-.176.365-.4.365-.232 0-.4-.168-.4-.365zM34.23 35.828c.392 0 .6-.194.6-.555 0-.371-.192-.577-.59-.577h-.546v1.132h.536zm-.016-1.548c.382 0 .556-.183.556-.51 0-.283-.169-.477-.55-.477h-.526v.987h.52zm-1.071-1.448h1.135c.684 0 1.045.35 1.045.877 0 .41-.256.682-.536.76v.01c.36.078.642.35.642.81 0 .605-.425.999-1.12.999h-1.166v-3.456zM37.448 35.667v-.65c-.038 0-.135-.006-.205-.006-.449 0-.692.131-.692.445 0 .257.162.399.432.399.2 0 .368-.086.465-.188m.07.308c-.119.16-.378.313-.691.313-.497 0-.827-.296-.827-.787 0-.576.46-.855 1.19-.855.085 0 .188.006.258.011v-.222c0-.4-.151-.565-.54-.565-.276 0-.508.086-.665.16v-.468c.184-.08.454-.154.762-.154.621 0 .989.28.989.93v1.266c0 .177.075.234.194.234a.614.614 0 0 0 .098-.012v.4a.685.685 0 0 1-.309.062.455.455 0 0 1-.458-.313M38.857 33.455h.574v.226c.145-.11.412-.273.784-.273.69 0 .928.43.928 1.003v1.877h-.586v-1.785c0-.393-.116-.625-.54-.625a1.04 1.04 0 0 0-.574.197v2.213h-.586v-2.833zM42.539 35.887l-.809-1.078v1.456h-.587v-4.009h.587v2.387l1.007-1.26h.645l-1.064 1.295.745.967c.092.124.168.177.296.177.012 0 .023 0 .07-.006v.449a.629.629 0 0 1-.175.023c-.279 0-.482-.083-.715-.4M0 32.832h2.286v.477H.66v.949h1.454v.45H.66v1.58H0z"/>
        <path fill="#002C8A" d="M29.714 9.792h7.297c4.157 0 6.403 2.012 6.403 4.998 0 2.42-1.446 3.898-3.017 4.337v.064C42.461 19.662 44 21.14 44 23.686c0 3.583-2.648 5.69-6.804 5.69h-7.482V9.792zm6.743 7.985c1.909 0 2.71-.88 2.71-2.39 0-1.351-.832-2.232-2.68-2.232h-2.555v4.622h2.525zm.092 8.235c1.878 0 2.894-.88 2.894-2.609 0-1.76-.955-2.672-2.863-2.672h-2.648v5.281h2.617zM16.89 9.792h4.69l6.991 19.584h-4.568l-1.226-3.898h-7.451l-1.288 3.898H9.714L16.89 9.792zm4.782 12.228l-1.594-5.03c-.368-1.163-.736-2.294-.95-3.205h-.061c-.245.88-.614 2.074-.982 3.205l-1.655 5.03h5.242zM0 9.792h11.429v3.552h-7.33v4.558h6.522v3.269H4.1v8.205H0z"/>
        <path fill="#FFF" d="M4.609 4.617H4a.565.565 0 0 1-.43-.194.665.665 0 0 1-.18-.467v-.41c0-.183.06-.338.18-.466A.563.563 0 0 1 4 2.885c.167 0 .31.065.43.195.118.128.178.283.178.466v1.071zM4 2.304a1.06 1.06 0 0 0-.808.366 1.242 1.242 0 0 0-.336.876v.41c0 .343.112.636.336.88.224.241.493.362.808.362h.608a.59.59 0 0 1-.17.392.496.496 0 0 1-.367.162H3.47c-.044 0-.067.025-.067.075v.434c0 .05.023.075.067.075h.602c.291 0 .542-.116.752-.347a1.16 1.16 0 0 0 .319-.818V3.546c0-.343-.111-.635-.333-.876A1.06 1.06 0 0 0 4 2.304zM7.94 1.152h-.358c-.039 0-.058.024-.058.07v2.97c0 .152-.028.262-.083.327-.055.063-.146.095-.274.097H5.77c-.036 0-.055.024-.055.073v.425c0 .046.02.07.06.07h1.393c.26 0 .464-.089.611-.266.148-.175.222-.418.222-.73V1.224c0-.047-.02-.071-.06-.071"/>
        <path fill="#FFF" d="M6.35 1.728c-.043 0-.064.024-.064.073v2.734c0 .05.02.073.064.073h.395c.045 0 .067-.024.067-.073V1.801c0-.049-.022-.073-.067-.073H6.35z"/>
        <path fill="#FFF" d="M6.342 1.728h1.03c.038 0 .057-.02.057-.062v-.183c0-.04-.02-.061-.056-.061H6.78v-.343c0-.055.018-.1.054-.138A.165.165 0 0 1 6.96.885c.08 0 .133.04.162.118l.034.084a.087.087 0 0 0 .028.034.058.058 0 0 0 .024.006.047.047 0 0 0 .022-.006l.155-.074c.024-.012.036-.03.036-.05A.086.086 0 0 0 7.416.97L7.383.885c-.08-.206-.22-.309-.423-.309a.43.43 0 0 0-.327.149.506.506 0 0 0-.134.354v.343h-.157c-.037 0-.056.02-.056.061v.183c0 .041.019.062.056.062M9.033 1.152h-.394c-.045 0-.068.025-.068.073v3.889c0 .046.023.07.068.07h.394c.044 0 .065-.024.065-.07v-3.89c0-.047-.021-.072-.065-.072M13.007 6.336h-.367c-.045 0-.069.023-.069.068v.402c0 .047.024.07.07.07h.366c.045 0 .067-.023.067-.07v-.402c0-.045-.022-.068-.067-.068M12.433 6.336h-.367c-.044 0-.066.023-.066.068v.402c0 .047.022.07.066.07h.367c.044 0 .066-.023.066-.07v-.402c0-.045-.022-.068-.066-.068M19.864 5.76h-.37c-.043 0-.065.023-.065.068v.402c0 .047.022.07.066.07h.37c.044 0 .066-.023.066-.07v-.402c0-.045-.022-.068-.067-.068M23.473 4.12c0 .152-.031.259-.092.322-.06.064-.162.097-.305.099h-1.451v-.895c.161-.194.377-.369.647-.527.27-.157.48-.236.632-.236.223 0 .381.096.477.286a.994.994 0 0 1 .092.449v.502zm-.569-1.795c-.35 0-.778.204-1.28.612V1.223c0-.047-.021-.071-.067-.071h-.397c-.043 0-.065.024-.065.071v3.318h-.794c-.118 0-.195-.018-.232-.054a.126.126 0 0 1-.017-.07V2.5c0-.046-.023-.07-.068-.07h-.397c-.042 0-.063.024-.063.07v1.846c0 .073-.013.124-.04.153-.028.028-.073.041-.136.041h-4.061v-1.26a.946.946 0 0 0-.266-.675.845.845 0 0 0-.64-.281.842.842 0 0 0-.64.28.946.946 0 0 0-.265.676v1.923h-1.463a.601.601 0 0 1-.445-.194.659.659 0 0 1-.184-.469.702.702 0 0 1 .355-.612l.177-.097c.028-.013.041-.031.041-.053a.083.083 0 0 0-.011-.039l-.18-.372a.067.067 0 0 0-.038-.036.05.05 0 0 0-.022-.005c-.01 0-.02.004-.03.01l-.176.095a1.2 1.2 0 0 0-.47.46 1.284 1.284 0 0 0-.173.649c0 .338.113.627.338.865.226.236.494.354.803.354h1.742a.247.247 0 0 0 .186-.082.276.276 0 0 0 .077-.196v-2.2c0-.111.037-.206.112-.284a.352.352 0 0 1 .266-.117c.105 0 .194.039.268.117a.395.395 0 0 1 .111.283V4.82a.27.27 0 0 0 .078.196.245.245 0 0 0 .186.082H19.345c.199 0 .36-.06.487-.181.137.12.325.181.566.181h2.678c.29 0 .517-.087.68-.26.162-.172.244-.41.244-.717v-.502c0-.386-.1-.698-.303-.936a.989.989 0 0 0-.793-.357z"/>
        <path fill="#FFF" d="M22.352 2.268h.367c.046 0 .069-.022.069-.068v-.401c0-.048-.023-.071-.069-.071h-.367c-.044 0-.066.023-.066.07V2.2c0 .046.022.068.066.068M25.655 4.617h-.575a.52.52 0 0 1-.405-.194.686.686 0 0 1-.17-.467v-.41c0-.183.057-.338.17-.466a.52.52 0 0 1 .81 0c.113.128.17.283.17.466v1.071zm3.997-2.204h-.38c-.042 0-.063.025-.063.073v1.928c0 .077-.013.13-.04.16-.024.029-.07.043-.138.043h-2.869V3.546c0-.343-.106-.635-.317-.876-.212-.244-.467-.366-.765-.366s-.552.122-.763.366a1.284 1.284 0 0 0-.317.876v.41c0 .343.106.636.317.88.21.241.465.362.763.362h.575a.618.618 0 0 1-.158.392.464.464 0 0 1-.347.162h-.572c-.042 0-.063.025-.063.075v.434c0 .05.02.075.063.075h.572c.269 0 .502-.112.702-.336.199-.224.303-.491.31-.802h2.869c.206 0 .373-.07.498-.21.123-.146.185-.337.185-.574V2.486c0-.048-.02-.073-.062-.073zM29.579 5.76h-.367c-.046 0-.07.023-.07.068v.402c0 .047.024.07.07.07h.367c.044 0 .066-.023.066-.07v-.402c0-.045-.022-.068-.066-.068M31.374.843h-.59V.5a.2.2 0 0 1 .051-.138.164.164 0 0 1 .127-.056c.078 0 .131.039.16.118l.034.085c.01.027.026.04.047.04a.067.067 0 0 0 .026-.006l.158-.07c.014-.006.023-.018.029-.037a.07.07 0 0 0 .005-.023.066.066 0 0 0-.005-.023l-.031-.084C31.305.102 31.164 0 30.962 0a.426.426 0 0 0-.326.147A.504.504 0 0 0 30.5.5v.343h-.158c-.038 0-.057.021-.057.063v.184c0 .041.019.062.057.062h1.031c.036 0 .055-.02.055-.062V.906c0-.042-.019-.063-.055-.063M31.318 1.152h-.393c-.045 0-.068.024-.068.07v3.892c0 .046.023.07.068.07h.393c.044 0 .066-.024.066-.07V1.223c0-.047-.022-.071-.066-.071M34.342 3.456h1.033c.035 0 .054-.02.054-.062v-.185c0-.041-.019-.062-.054-.062h-.592v-.34c0-.055.018-.102.052-.141a.166.166 0 0 1 .126-.056c.081 0 .135.04.163.118l.033.087c.01.025.027.037.05.037a.086.086 0 0 0 .028-.006l.155-.07a.073.073 0 0 0 .028-.034.077.077 0 0 0 .003-.022c0-.01 0-.018-.003-.026l-.033-.084c-.08-.204-.22-.306-.424-.306a.425.425 0 0 0-.325.146.516.516 0 0 0-.133.357v.34h-.16c-.038 0-.057.02-.057.062v.185c0 .041.019.062.056.062M41.21 2.266h.37c.043 0 .065-.023.065-.068v-.402c0-.045-.022-.068-.066-.068h-.37c-.044 0-.066.023-.066.068v.402c0 .045.022.068.066.068"/>
        <path fill="#FFF" d="M43.363 2.46h-.4c-.044 0-.066.024-.066.071v1.887c0 .075-.013.127-.041.157-.026.027-.075.041-.146.041h-.998c-.114 0-.187-.019-.22-.057-.014-.014-.022-.039-.022-.073V2.529c0-.05-.022-.073-.065-.073h-.4c-.044 0-.066.024-.066.073v1.884c0 .078-.014.13-.04.156-.027.03-.072.046-.136.047h-4.39c-.115 0-.19-.019-.222-.057-.013-.01-.02-.035-.02-.073V1.223c0-.047-.021-.071-.065-.071h-.4c-.045 0-.069.024-.069.07v3.19c0 .08-.012.134-.038.16-.028.03-.074.044-.14.044h-1.684a.604.604 0 0 1-.447-.198.684.684 0 0 1-.185-.48c0-.13.032-.253.097-.367a.666.666 0 0 1 .261-.258l.179-.099c.025-.014.039-.032.039-.055a.095.095 0 0 0-.01-.039l-.18-.38c-.01-.02-.023-.032-.04-.037a.043.043 0 0 0-.022-.005c-.01 0-.02.004-.029.01l-.18.097a1.202 1.202 0 0 0-.471.469 1.324 1.324 0 0 0-.176.665c0 .345.114.64.341.883.228.241.502.362.823.362h1.677c.203 0 .37-.062.498-.187.138.125.33.187.573.187H40.753c.204 0 .37-.062.498-.187.138.125.328.187.57.187h.889a.693.693 0 0 0 .524-.206c.13-.142.195-.329.195-.56V2.531c0-.047-.022-.07-.066-.07M2.219 1.152h-.39c-.044 0-.067.022-.067.065v3.389c0 .174-.06.322-.182.444a.595.595 0 0 1-.437.183.596.596 0 0 1-.438-.183.606.606 0 0 1-.184-.444V3.357c0-.045-.02-.068-.062-.068H.067c-.045 0-.067.023-.067.068v1.249c0 .318.111.59.335.816.223.225.492.338.808.338a1.1 1.1 0 0 0 .808-.338c.223-.225.335-.498.335-.816V1.217c0-.043-.022-.065-.067-.065M43.293 5.76h-.367c-.046 0-.069.023-.069.068v.402c0 .047.023.07.07.07h.366c.044 0 .066-.023.066-.07v-.402c0-.045-.022-.068-.066-.068"/>
    </g>
</svg>
