<svg xmlns="http://www.w3.org/2000/svg" width="16" height="16" viewBox="0 0 16 16">
    <g fill="#F6F7F7" fill-rule="nonzero" stroke="#F7F7F6" stroke-width=".3">
        <path d="M13.744 14.464H4.768a1.178 1.178 0 0 1-1.176-1.176V2.176C3.592 1.528 4.12 1 4.768 1h8.976c.648 0 1.176.528 1.176 1.176v11.112c0 .648-.528 1.176-1.176 1.176zM4.768 1.48a.697.697 0 0 0-.696.696v11.112c0 .384.312.696.696.696h8.976a.697.697 0 0 0 .696-.696V2.176a.697.697 0 0 0-.696-.696H4.768z"/>
        <path d="M11.152 15.544H2.176A1.178 1.178 0 0 1 1 14.368V3.256c0-.648.528-1.176 1.176-1.176h1.632v.48H2.176a.697.697 0 0 0-.696.696v11.112c0 .384.312.696.696.696h8.976a.697.697 0 0 0 .696-.696v-.144h.48v.144c.024.648-.504 1.176-1.176 1.176zM13.192 3.52H5.296c-.144 0-.24-.096-.24-.24s.096-.24.24-.24h7.872c.144 0 .24.096.24.24s-.096.24-.216.24z"/>
        <path d="M13.192 5.2H5.296c-.144 0-.24-.096-.24-.24s.096-.24.24-.24h7.872c.144 0 .24.096.24.24s-.096.24-.216.24zM13.192 7.12H5.296c-.144 0-.24-.096-.24-.24s.096-.24.24-.24h7.872c.144 0 .24.096.24.24s-.096.24-.216.24zM13.192 8.8H5.296c-.144 0-.24-.096-.24-.24s.096-.24.24-.24h7.872c.144 0 .24.096.24.24s-.096.24-.216.24zM13.192 10.72H5.296c-.144 0-.24-.096-.24-.24s.096-.24.24-.24h7.872c.144 0 .24.096.24.24s-.096.24-.216.24zM13.192 12.4H5.296c-.144 0-.24-.096-.24-.24s.096-.24.24-.24h7.872c.144 0 .24.096.24.24s-.096.24-.216.24z"/>
    </g>
</svg>
