<svg xmlns="http://www.w3.org/2000/svg" width="15" height="16" viewBox="0 0 15 16">
    <g fill="#094684" fill-rule="nonzero" stroke="#094684" stroke-width=".3">
        <path d="M13.35 14.464H4.65c-.628 0-1.14-.528-1.14-1.176V2.176c0-.648.512-1.176 1.14-1.176h8.698c.628 0 1.14.528 1.14 1.176v11.112c0 .648-.512 1.176-1.14 1.176zM4.65 1.48a.686.686 0 0 0-.674.696v11.112c0 .384.302.696.674.696h8.698a.686.686 0 0 0 .675-.696V2.176a.686.686 0 0 0-.675-.696H4.651z"/>
        <path d="M10.838 15.544H2.14c-.628 0-1.14-.528-1.14-1.176V3.256c0-.648.512-1.176 1.14-1.176H3.72v.48H2.14a.686.686 0 0 0-.675.696v11.112c0 .384.302.696.675.696h8.698a.686.686 0 0 0 .674-.696v-.144h.465v.144a1.131 1.131 0 0 1-1.14 1.176zM12.814 3.52H5.163c-.14 0-.233-.096-.233-.24s.093-.24.233-.24h7.628c.14 0 .233.096.233.24s-.093.24-.21.24z"/>
        <path d="M12.814 5.2H5.163c-.14 0-.233-.096-.233-.24s.093-.24.233-.24h7.628c.14 0 .233.096.233.24s-.093.24-.21.24zM12.814 7.12H5.163c-.14 0-.233-.096-.233-.24s.093-.24.233-.24h7.628c.14 0 .233.096.233.24s-.093.24-.21.24zM12.814 8.8H5.163c-.14 0-.233-.096-.233-.24s.093-.24.233-.24h7.628c.14 0 .233.096.233.24s-.093.24-.21.24zM12.814 10.72H5.163c-.14 0-.233-.096-.233-.24s.093-.24.233-.24h7.628c.14 0 .233.096.233.24s-.093.24-.21.24zM12.814 12.4H5.163c-.14 0-.233-.096-.233-.24s.093-.24.233-.24h7.628c.14 0 .233.096.233.24s-.093.24-.21.24z"/>
    </g>
</svg>
