<svg xmlns="http://www.w3.org/2000/svg" width="13" height="14" viewBox="0 0 13 14">
    <path fill="#565454" fill-rule="evenodd" stroke="#FFF" stroke-width=".1" d="M5.58 13.46a.816.816 0 0 0 .596-.256l1.865-1.862a.79.79 0 0 0 .254-.594l.015-4.839 4.403-4.413a.854.854 0 0 0 .184-.922.852.852 0 0 0-.78-.524H.907a.888.888 0 0 0-.794.524.854.854 0 0 0 .184.922l4.432 4.448v6.665c0 .339.212.652.526.78a.84.84 0 0 0 .326.071zM1.169 1.092c-.013-.016-.013-.016-.016-.037.012-.04.012-.04.051-.05h10.618c.02.002.02.002.036.015.02.036.02.036 0 .072l-4.29 4.184a.79.79 0 0 0-.253.593v4.802c-.003.02-.003.02-.016.038L5.76 12.32c-.018.014-.018.014-.04.017-.043-.013-.043-.013-.055-.056l.046-6.428a.848.848 0 0 0-.255-.594L1.168 1.092z"/>
</svg>
