<svg xmlns="http://www.w3.org/2000/svg" width="22" height="20" viewBox="0 0 22 20">
    <g fill="#094684" fill-rule="nonzero" stroke-width=".2">
        <g stroke="#00458A">
            <path d="M1.932 9.129a.36.36 0 0 0 .303-.083l2.196-1.5a.363.363 0 1 0-.41-.6l-1.443.986a8.683 8.683 0 0 1 16.846.907.363.363 0 0 0 .714-.133 9.41 9.41 0 0 0-18.302-.828L.784 6.337a.363.363 0 1 0-.6.41l1.48 2.167a.362.362 0 0 0 .268.215zM20.115 11.962a.36.36 0 0 0-.57-.132l-2.196 1.5a.363.363 0 0 0 .41.6l1.443-.986a8.683 8.683 0 0 1-16.846-.907.363.363 0 1 0-.714.133 9.41 9.41 0 0 0 18.302.828l1.052 1.541a.363.363 0 0 0 .6-.41l-1.481-2.167z"/>
        </g>
        <g stroke="#002498">
            <path d="M14.78 15.399a.357.357 0 0 1-.357-.357c0-1.654-1.052-3-2.345-3H9.64c-1.293 0-2.344 1.346-2.344 3a.357.357 0 0 1-.714 0c0-2.048 1.372-3.714 3.058-3.714h2.438c1.687 0 3.059 1.666 3.059 3.714 0 .197-.16.357-.357.357zM10.86 10.73a2.63 2.63 0 0 1-2.627-2.627 2.63 2.63 0 0 1 2.626-2.626 2.63 2.63 0 0 1 2.626 2.626 2.63 2.63 0 0 1-2.626 2.627zm0-4.54a1.915 1.915 0 0 0-1.914 1.913c0 1.055.858 1.913 1.913 1.913a1.915 1.915 0 0 0 1.913-1.913 1.915 1.915 0 0 0-1.913-1.912z"/>
        </g>
    </g>
</svg>
