<svg xmlns="http://www.w3.org/2000/svg" width="20" height="16" viewBox="0 0 20 16">
    <path fill="#004589" fill-rule="nonzero" stroke="#004087" stroke-width=".2" d="M17.986 3.18H9.353L7.59 1.045A1.8 1.8 0 0 0 6.198.388H.625a.417.417 0 0 0-.417.417v13.529c0 .613.499 1.111 1.111 1.111h17.362c.612 0 1.11-.498 1.11-1.111V4.985c0-.995-.81-1.805-1.805-1.805zM1.042 1.222h5.156c.29 0 .564.128.75.353L8.271 3.18h-7.23V1.222zm17.916 13.112a.278.278 0 0 1-.277.278H1.319a.278.278 0 0 1-.277-.278V4.014H17.986c.536 0 .972.435.972.971v9.349z"/>
</svg>
