<svg xmlns="http://www.w3.org/2000/svg" width="25" height="25" viewBox="0 0 25 25">
    <g fill="none" fill-rule="nonzero">
        <path fill="#E3E3E4" d="M12.134.003A12.368 12.368 0 0 0 .003 12.643c.14 6.855 5.812 12.272 12.64 12.13 6.855-.14 12.272-5.811 12.13-12.639A12.368 12.368 0 0 0 12.135.003z"/>
        <path d="M12.586 22.573c-5.615.113-10.27-4.345-10.383-9.959C2.09 7 6.548 2.344 12.163 2.232c5.614-.113 10.27 4.344 10.382 9.959.141 5.614-4.317 10.27-9.96 10.382z"/>
        <path fill="#FFF" d="M14.025 11.57c0 .508-.141 1.298-.395 2.37s-.395 1.75-.395 2.06c0 .31.056.48.169.48.113 0 .339-.057.649-.17l.14-.057.283.847c-.367.31-.818.564-1.354.79-.536.226-1.016.338-1.467.338-.423 0-.79-.14-1.044-.395-.254-.254-.367-.648-.367-1.156 0-.508.141-1.27.395-2.286.254-1.015.395-1.664.395-1.946 0-.423-.141-.818-.423-1.213l-.141-.198.056-.282c.564-.17 1.637-.282 3.217-.282.197.225.282.592.282 1.1zM12.84 9.144c-.48 0-.875-.141-1.129-.423-.282-.283-.395-.621-.395-1.044 0-.424.17-.79.508-1.072a1.84 1.84 0 0 1 1.213-.452c.48 0 .847.113 1.129.367.254.254.395.592.395 1.016 0 .423-.17.818-.48 1.128-.367.339-.762.48-1.241.48z"/>
    </g>
</svg>
