<svg xmlns="http://www.w3.org/2000/svg" width="24" height="24" viewBox="0 0 24 24">
    <g fill="#0C2340" fill-rule="nonzero">
        <path d="M22.5 9h-2.015a9.1 9.1 0 0 0-.366-.877L21.541 6.7a1.492 1.492 0 0 0 .003-2.125L19.426 2.46a1.484 1.484 0 0 0-1.063-.445 1.482 1.482 0 0 0-1.061.443L15.877 3.88A9.022 9.022 0 0 0 15 3.514V1.5A1.5 1.5 0 0 0 13.5 0h-3A1.5 1.5 0 0 0 9 1.5v2.014a9.022 9.022 0 0 0-.877.367L6.7 2.458a1.485 1.485 0 0 0-1.064-.445 1.482 1.482 0 0 0-1.06.443L2.459 4.574a1.492 1.492 0 0 0 0 2.125l1.424 1.424A9.1 9.1 0 0 0 3.514 9H1.5A1.5 1.5 0 0 0 0 10.5v3A1.5 1.5 0 0 0 1.5 15h2.014c.107.299.23.592.367.877L2.459 17.3a1.492 1.492 0 0 0 0 2.124l2.117 2.118c.28.285.663.446 1.063.445.399.002.781-.158 1.061-.442l1.424-1.425c.285.137.578.26.876.365V22.5a1.5 1.5 0 0 0 1.5 1.5h3a1.5 1.5 0 0 0 1.5-1.5v-2.015c.299-.106.592-.228.877-.366l1.423 1.422c.28.286.664.446 1.063.445.4.001.781-.158 1.061-.442l2.117-2.118a1.492 1.492 0 0 0 .003-2.124l-1.425-1.425c.138-.285.26-.578.366-.877H22.5a1.5 1.5 0 0 0 1.5-1.5v-3A1.5 1.5 0 0 0 22.5 9zm.5 4.5a.5.5 0 0 1-.5.5h-2.375a.5.5 0 0 0-.477.35 8.07 8.07 0 0 1-.58 1.389.5.5 0 0 0 .088.588l1.683 1.682a.492.492 0 0 1 0 .706l-2.123 2.122a.492.492 0 0 1-.35.15.494.494 0 0 1-.354-.15l-1.68-1.68a.5.5 0 0 0-.589-.087 8.07 8.07 0 0 1-1.393.58.5.5 0 0 0-.35.478V22.5a.5.5 0 0 1-.5.5h-3a.5.5 0 0 1-.5-.5v-2.375a.5.5 0 0 0-.35-.477 8.07 8.07 0 0 1-1.389-.58.5.5 0 0 0-.588.088L5.991 20.84a.492.492 0 0 1-.35.15.495.495 0 0 1-.354-.15l-2.126-2.125a.492.492 0 0 1 0-.705l1.68-1.68a.5.5 0 0 0 .088-.589 8.07 8.07 0 0 1-.577-1.39.5.5 0 0 0-.477-.35H1.5a.5.5 0 0 1-.5-.5v-3a.5.5 0 0 1 .5-.5h2.375a.5.5 0 0 0 .478-.35c.15-.48.343-.945.579-1.389a.5.5 0 0 0-.089-.588L3.161 5.989a.493.493 0 0 1 0-.705L5.284 3.16a.492.492 0 0 1 .704.003l1.68 1.68a.5.5 0 0 0 .588.088c.445-.237.912-.43 1.394-.58a.5.5 0 0 0 .35-.477V1.5a.5.5 0 0 1 .5-.5h3a.5.5 0 0 1 .5.5v2.375a.5.5 0 0 0 .35.478c.48.149.946.342 1.39.579a.5.5 0 0 0 .588-.089l1.683-1.681a.49.49 0 0 1 .35-.15c.133 0 .26.054.353.15l2.122 2.122a.492.492 0 0 1 0 .705l-1.68 1.68a.5.5 0 0 0-.088.589c.237.445.432.91.582 1.392a.5.5 0 0 0 .478.35H22.5a.5.5 0 0 1 .5.5v3z"/>
        <path d="M14 11a.5.5 0 0 0 .5-.5V10A1.5 1.5 0 0 0 13 8.5h-.5V8a.5.5 0 1 0-1 0v.5H11A1.5 1.5 0 0 0 9.5 10v1a1.5 1.5 0 0 0 1.5 1.5h2a.5.5 0 0 1 .5.5v1a.5.5 0 0 1-.5.5h-2a.5.5 0 0 1-.5-.5v-.5a.5.5 0 1 0-1 0v.5a1.5 1.5 0 0 0 1.5 1.5h.5v.5a.5.5 0 1 0 1 0v-.5h.5a1.5 1.5 0 0 0 1.5-1.5v-1a1.5 1.5 0 0 0-1.5-1.5h-2a.5.5 0 0 1-.5-.5v-1a.5.5 0 0 1 .5-.5h2a.5.5 0 0 1 .5.5v.5a.5.5 0 0 0 .5.5z"/>
        <path d="M14 6.5a.5.5 0 1 0 0-1h-2A6.508 6.508 0 0 0 5.5 12a.5.5 0 1 0 1 0A5.506 5.506 0 0 1 12 6.5h2zM18 11.5a.5.5 0 0 0-.5.5 5.507 5.507 0 0 1-5.5 5.5h-2a.5.5 0 1 0 0 1h2a6.508 6.508 0 0 0 6.5-6.5.5.5 0 0 0-.5-.5zM6.5 13.5H6a.5.5 0 1 0 0 1h.5a.5.5 0 1 0 0-1zM18 9.5h-.5a.5.5 0 1 0 0 1h.5a.5.5 0 1 0 0-1z"/>
    </g>
</svg>
