<svg xmlns="http://www.w3.org/2000/svg" width="17" height="18" viewBox="0 0 17 18">
    <g fill="#003087" fill-rule="evenodd" opacity=".9">
        <path d="M3.106 11.888a.751.751 0 0 1 .598-.305h.093c.16 0 .311.05.44.142l2.24 1.608H5.12l-2.013-1.445zM0 12.323c0 .354.14.685.392.935l2.843 2.806c.502.496 1.17.77 1.88.77h5.727l1.698 1.117a.3.3 0 0 0 .41-.08.29.29 0 0 0-.082-.405l-1.772-1.167a.3.3 0 0 0-.164-.049H5.115a2.067 2.067 0 0 1-1.462-.598L.81 12.846a.73.73 0 0 1-.22-.523c0-.408.337-.74.75-.74h.093c.16 0 .312.05.44.142L4.85 13.86c.05.036.111.056.174.056h2.954c.164 0 .296-.131.296-.292a.293.293 0 0 0-.296-.292h-.495l-2.897-2.08A1.342 1.342 0 0 0 3.797 11h-.094c-.428 0-.828.208-1.078.543l-.404-.29A1.342 1.342 0 0 0 1.433 11H1.34C.6 11 0 11.593 0 12.323z"/>
        <path d="M12.92 12.6l3.645 2.356c.047.03.098.044.15.044.095 0 .189-.05.243-.143a.309.309 0 0 0-.094-.413l-3.714-2.4A.278.278 0 0 0 13 12h-2.714C9.576 12 9 12.606 9 13.35c0 .744.577 1.35 1.286 1.35h2.143a.293.293 0 0 0 .285-.3c0-.166-.127-.3-.285-.3h-2.143c-.394 0-.715-.337-.715-.75s.32-.75.715-.75h2.633zM8.429 3.846H9.57c.473 0 .858.414.858.923 0 .17.127.308.285.308.158 0 .286-.138.286-.308 0-.848-.64-1.538-1.429-1.538h-.285v-.923C9.286 2.138 9.158 2 9 2c-.158 0-.286.138-.286.308v.923H8.43C7.64 3.23 7 3.92 7 4.769c0 .849.64 1.539 1.429 1.539H9.57c.473 0 .858.414.858.923 0 .509-.385.923-.858.923H8.43c-.473 0-.858-.414-.858-.923 0-.17-.127-.308-.285-.308-.158 0-.286.138-.286.308 0 .848.64 1.538 1.429 1.538h.285v.923c0 .17.128.308.286.308.158 0 .286-.138.286-.308V8.77h.285C10.36 8.77 11 8.08 11 7.231c0-.849-.64-1.539-1.429-1.539H8.43c-.473 0-.858-.414-.858-.923 0-.509.385-.923.858-.923"/>
        <path d="M9.5 11a5.438 5.438 0 0 0 3.431-1.205.29.29 0 1 0-.362-.452A4.866 4.866 0 0 1 9.5 10.42 4.927 4.927 0 0 1 4.579 5.5 4.927 4.927 0 0 1 9.5.579 4.927 4.927 0 0 1 14.421 5.5a4.865 4.865 0 0 1-1.079 3.07.29.29 0 0 0 .453.36A5.437 5.437 0 0 0 15 5.5C15 2.467 12.533 0 9.5 0A5.506 5.506 0 0 0 4 5.5C4 8.533 6.467 11 9.5 11"/>
    </g>
</svg>
