<svg xmlns="http://www.w3.org/2000/svg" width="21" height="16" viewBox="0 0 21 16">
    <g fill="#094684" fill-rule="nonzero" stroke="#094684" stroke-width=".2">
        <path d="M19.736 15H1.264C1.118 15 1 14.871 1 14.712V1.288c0-.16.118-.288.264-.288h18.472c.146 0 .264.129.264.288v13.424c0 .16-.118.288-.264.288zm-18.208-.575h17.944V1.575H1.528v12.85z"/>
        <path d="M10.5 9.726a.25.25 0 0 1-.166-.064l-9.236-8.15a.304.304 0 0 1-.083-.32A.266.266 0 0 1 1.264 1h18.472c.112 0 .212.077.249.192a.304.304 0 0 1-.083.32l-9.236 8.15a.25.25 0 0 1-.166.064zm-8.49-8.15l8.49 7.492 8.49-7.493H2.01z"/>
    </g>
</svg>
