<?xml version="1.0" encoding="UTF-8"?>
<svg width="16px" height="18px" viewBox="0 0 16 18" version="1.1" xmlns="http://www.w3.org/2000/svg" xmlns:xlink="http://www.w3.org/1999/xlink">
    <!-- Generator: Sketch 56 (81588) - https://sketch.com -->
    <title>noun_profile_1594237 copy</title>
    <desc>Created with Sketch.</desc>
    <g id="Letter-Of-Credit-v-01" stroke="none" stroke-width="1" fill="none" fill-rule="evenodd">
        <g id="noun_profile_1594237-copy" transform="translate(0.000000, 0.088334)" fill="#094684" fill-rule="nonzero">
            <g id="Group">
                <g id="Shape">
                    <path d="M15.2142857,17.1428571 C15.2142857,17.4978973 14.9264688,17.7857143 14.5714286,17.7857143 C14.2163884,17.7857143 13.9285714,17.4978973 13.9285714,17.1428571 C13.9285714,13.7108019 11.146341,10.9285714 7.71428571,10.9285714 C4.28223047,10.9285714 1.5,13.7108019 1.5,17.1428571 C1.5,17.4978973 1.21218304,17.7857143 0.857142857,17.7857143 C0.502102671,17.7857143 0.214285714,17.4978973 0.214285714,17.1428571 C0.214285714,13.0007215 3.5721501,9.64285714 7.71428571,9.64285714 C11.8564213,9.64285714 15.2142857,13.0007215 15.2142857,17.1428571 Z M7.71428571,9.21428571 C5.22900433,9.21428571 3.21428571,7.1995671 3.21428571,4.71428571 C3.21428571,2.22900433 5.22900433,0.214285714 7.71428571,0.214285714 C10.1995671,0.214285714 12.2142857,2.22900433 12.2142857,4.71428571 C12.2142857,7.1995671 10.1995671,9.21428571 7.71428571,9.21428571 Z M7.71428571,7.92857143 C9.48948669,7.92857143 10.9285714,6.48948669 10.9285714,4.71428571 C10.9285714,2.93908474 9.48948669,1.5 7.71428571,1.5 C5.93908474,1.5 4.5,2.93908474 4.5,4.71428571 C4.5,6.48948669 5.93908474,7.92857143 7.71428571,7.92857143 Z"></path>
                </g>
            </g>
        </g>
    </g>
</svg>