<svg xmlns="http://www.w3.org/2000/svg" width="15" height="15" viewBox="0 0 15 15">
    <g fill="#094684" fill-rule="nonzero">
        <path stroke="#094684" stroke-width=".3" d="M1.432 14.392V2.944h1.296v-.432H1.432A.432.432 0 0 0 1 2.944v11.448c0 .239.193.432.432.432h1.413a.858.858 0 0 1-.117-.432H1.432zM14.392 2.512h-1.296v.432h1.296v11.448h-1.296c0 .152-.04.3-.117.432h1.413a.432.432 0 0 0 .432-.432V2.944a.432.432 0 0 0-.432-.432zM12.232 1h-8.64a.432.432 0 0 0-.432.432v12.96c0 .239.193.432.432.432h8.64a.432.432 0 0 0 .432-.432V1.432A.432.432 0 0 0 12.232 1zm0 13.392h-8.64V1.432h8.64v12.96z"/>
        <path d="M5.536 3.592h2.592a.216.216 0 1 0 0-.432H5.536a.216.216 0 1 0 0 .432zM5.536 4.888h5.616a.216.216 0 0 0 0-.432H5.536a.216.216 0 1 0 0 .432zM5.536 6.184h5.616a.216.216 0 0 0 0-.432H5.536a.216.216 0 1 0 0 .432zM5.536 7.48h2.592a.216.216 0 1 0 0-.432H5.536a.216.216 0 1 0 0 .432zM5.536 8.776h5.616a.216.216 0 0 0 0-.432H5.536a.216.216 0 1 0 0 .432zM5.536 10.072h5.616a.216.216 0 0 0 0-.432H5.536a.216.216 0 1 0 0 .432zM5.536 11.368h5.616a.216.216 0 0 0 0-.432H5.536a.216.216 0 0 0 0 .432zM5.536 12.664h5.616a.216.216 0 0 0 0-.432H5.536a.216.216 0 0 0 0 .432z"/>
    </g>
</svg>
