<svg xmlns="http://www.w3.org/2000/svg" width="16" height="15" viewBox="0 0 16 15">
    <path fill="#434343" fill-rule="nonzero" stroke="#434343" stroke-width=".1" d="M8 .313c-3.86 0-7 3.14-7 7s3.14 7 7 7 7-3.14 7-7-3.14-7-7-7zm0 12.833a5.84 5.84 0 0 1-5.833-5.834A5.84 5.84 0 0 1 8 1.48a5.84 5.84 0 0 1 5.833 5.833A5.84 5.84 0 0 1 8 13.146zm2.746-7.754l-1.921 1.92 1.92 1.921a.583.583 0 1 1-.824.825L8 8.138l-1.92 1.92a.582.582 0 0 1-.826 0 .583.583 0 0 1 0-.825l1.921-1.92-1.92-1.921a.583.583 0 1 1 .824-.825L8 6.487l1.92-1.92a.583.583 0 1 1 .826.825z"/>
</svg>
