<svg xmlns="http://www.w3.org/2000/svg" width="28" height="20" viewBox="0 0 28 20">
    <g fill="#0C2340" fill-rule="nonzero">
        <path d="M27.563 5.217h-.438V3.043a.434.434 0 0 0-.164-.353.44.44 0 0 0-.383-.081l-.765.204V.87a.434.434 0 0 0-.202-.366.44.44 0 0 0-.437-.03C19.635 3.044.582 5.217.389 5.217a.326.326 0 0 0-.06 0 .61.61 0 0 0-.084.026.67.67 0 0 0-.131.1l-.048.07a.347.347 0 0 0-.035.07.307.307 0 0 0 0 .087.303.303 0 0 0-.031.082v13.913c0 .24.196.435.438.435h27.125a.436.436 0 0 0 .437-.435V5.652a.436.436 0 0 0-.438-.435zm-1.313 0h-9.06c3.049-.359 6.075-.898 9.06-1.613v1.613zm-1.313-2.2c-6.181 1.405-12.936 1.91-16.97 2.092 5.736-.835 13.265-2.122 16.97-3.583v1.491zm2.188 16.113H.875V6.087h26.25V19.13z"/>
        <path d="M2.625 16.522c.725 0 1.313.584 1.313 1.304 0 .24.195.435.437.435h19.25a.436.436 0 0 0 .438-.435c0-.72.587-1.304 1.312-1.304a.436.436 0 0 0 .438-.435V9.13a.436.436 0 0 0-.438-.434 1.308 1.308 0 0 1-1.313-1.305.436.436 0 0 0-.437-.434H4.375a.436.436 0 0 0-.438.434c0 .72-.587 1.305-1.312 1.305a.436.436 0 0 0-.438.434v6.957c0 .24.196.435.438.435zm7.875-3.913c0-2.64 1.57-4.783 3.5-4.783s3.5 2.144 3.5 4.783c0 2.639-1.57 4.782-3.5 4.782s-3.5-2.143-3.5-4.782zm12.731-4.783a2.18 2.18 0 0 0 1.706 1.696v6.174a2.18 2.18 0 0 0-1.706 1.695h-6.908a6.169 6.169 0 0 0 2.052-4.782 6.169 6.169 0 0 0-2.052-4.783h6.908zM3.062 9.522A2.18 2.18 0 0 0 4.77 7.826h6.908a6.169 6.169 0 0 0-2.052 4.783 6.169 6.169 0 0 0 2.052 4.782H4.769a2.18 2.18 0 0 0-1.707-1.695V9.522z"/>
        <path d="M21.875 14.348c.725 0 1.313-.584 1.313-1.305 0-.72-.588-1.304-1.313-1.304s-1.313.584-1.313 1.304c0 .72.588 1.305 1.313 1.305zm0-1.74c.242 0 .438.195.438.435s-.196.435-.438.435a.436.436 0 0 1-.438-.435c0-.24.196-.434.438-.434zM6.125 14.348c.725 0 1.313-.584 1.313-1.305 0-.72-.588-1.304-1.313-1.304s-1.313.584-1.313 1.304c0 .72.588 1.305 1.313 1.305zm0-1.74c.242 0 .438.195.438.435s-.196.435-.438.435a.436.436 0 0 1-.438-.435c0-.24.196-.434.438-.434z"/>
    </g>
</svg>
