<svg xmlns="http://www.w3.org/2000/svg" width="15" height="19" viewBox="0 0 15 19">
    <path fill="#094684" fill-rule="nonzero" stroke="#094684" stroke-width=".2" d="M11.667 12.392c-.217.064-.535.071-.877.022a4.187 4.187 0 0 1-1.109-.33c.656-.096 1.165-.067 1.6.087.103.037.272.135.386.221zm-3.658-.601l-.079.021c-.176.048-.348.095-.513.137l-.223.056c-.449.114-.908.23-1.36.368.172-.416.332-.835.488-1.246.116-.304.235-.614.357-.92.062.102.127.205.195.308.307.468.693.901 1.135 1.276zM6.87 7.108c.028.513-.082 1.005-.244 1.478-.2-.584-.293-1.23-.044-1.751.064-.134.117-.205.151-.243.052.082.122.263.136.516zm-2.343 6.49c-.112.201-.227.39-.344.567-.284.427-.747.884-.985.884-.023 0-.052-.004-.093-.047-.027-.029-.031-.049-.03-.076.008-.157.216-.436.517-.696a5.09 5.09 0 0 1 .935-.631zm7.9-1.184c-.037-.523-.917-.858-.926-.861-.34-.121-.71-.18-1.13-.18-.45 0-.935.065-1.557.21a5.42 5.42 0 0 1-1.39-1.428c-.159-.24-.3-.48-.425-.715.303-.723.575-1.5.525-2.37-.04-.697-.354-1.166-.782-1.166-.293 0-.546.218-.751.647-.367.765-.27 1.744.286 2.911-.2.47-.387.959-.567 1.431-.224.588-.455 1.193-.716 1.77-.73.289-1.33.64-1.83 1.07-.327.28-.722.71-.744 1.16a.742.742 0 0 0 .208.56.772.772 0 0 0 .57.252c.714 0 1.4-.981 1.531-1.178.263-.395.508-.836.749-1.345.606-.22 1.252-.383 1.878-.54l.224-.058c.168-.043.344-.09.523-.139.19-.051.386-.105.585-.155.643.408 1.334.675 2.008.773.568.082 1.072.035 1.413-.143.308-.16.325-.407.318-.506zm1.382 4.497c0 .958-.844 1.017-1.014 1.019H1.904c-.955 0-1.012-.85-1.014-1.02V2.444c0-.959.846-1.017 1.014-1.02H9.26l.004.005v2.87c0 .577.349 1.668 1.668 1.668h2.852l.024.024v10.92zm-.676-11.6h-2.2c-.954 0-1.012-.845-1.013-1.012V2.085l3.213 3.226zm1.33 11.6V5.72L9.92 1.157v-.02h-.022L9.532.768H1.904C1.327.77.236 1.12.236 2.443V16.91c0 .579.348 1.673 1.668 1.673h10.891c.577 0 1.668-.35 1.668-1.673z"/>
</svg>
