<svg xmlns="http://www.w3.org/2000/svg" width="14" height="15" viewBox="0 0 14 15">
    <g fill="#434343" fill-rule="nonzero" stroke="#434343" stroke-width=".3">
        <path d="M12.667 8.892h-.875V1.6H1.875v12.25h7.624l.814.394.003.481H1v-14h11.667z"/>
        <path d="M10.333 14.725a3.5 3.5 0 1 1 0-7 3.5 3.5 0 0 1 0 7zm0-.84a2.66 2.66 0 1 0 0-5.32 2.66 2.66 0 0 0 0 5.32zM3.333 3.642h7v1h-7zM3.333 6.558h4.083v1H3.333zM3.333 9.475H6.25v1H3.333z"/>
        <path d="M10.625 11.225h1.458v.875H9.75V9.475h.875z"/>
    </g>
</svg>
