<svg xmlns="http://www.w3.org/2000/svg" width="13" height="13" viewBox="0 0 13 13">
    <g fill="#71ADFF" fill-rule="nonzero">
        <path d="M10.744 6.017a4.726 4.726 0 0 0-4.727-4.728 4.726 4.726 0 0 0-4.728 4.728 4.726 4.726 0 0 0 4.728 4.727 4.726 4.726 0 0 0 4.727-4.727zm1.29 0a6.016 6.016 0 0 1-6.017 6.016A6.016 6.016 0 0 1 0 6.017 6.016 6.016 0 0 1 6.017 0a6.016 6.016 0 0 1 6.016 6.017z"/>
        <path d="M5.372 3.33a.645.645 0 1 1 1.29 0v5.372a.645.645 0 1 1-1.29 0V3.331z"/>
        <path d="M8.702 5.372a.645.645 0 1 1 0 1.29H3.331a.645.645 0 1 1 0-1.29h5.371z"/>
    </g>
</svg>
