<?xml version="1.0" encoding="UTF-8"?>
<svg width="18px" height="21px" viewBox="0 0 18 21" version="1.1" xmlns="http://www.w3.org/2000/svg" xmlns:xlink="http://www.w3.org/1999/xlink">
    <!-- Generator: Sketch 56 (81588) - https://sketch.com -->
    <title>Shape</title>
    <desc>Created with Sketch.</desc>
    <g id="Letter-Of-Credit-v-01" stroke="none" stroke-width="1" fill="none" fill-rule="evenodd">
        <path d="M3.58064516,3.01705009 L3.58064516,1.04930816 C3.58064516,0.85575977 3.4516129,0.726727512 3.25806452,0.726727512 C3.06451613,0.726727512 2.93548387,0.85575977 2.93548387,1.04930816 L2.93548387,3.01705009 C1.83870968,3.17834041 1,4.11382429 1,5.24285654 C1,6.3718888 1.83870968,7.30737267 2.93548387,7.468663 L2.93548387,20.4041469 C2.93548387,20.5976953 3.06451613,20.7267275 3.25806452,20.7267275 C3.4516129,20.7267275 3.58064516,20.5976953 3.58064516,20.4041469 L3.58064516,7.468663 C4.67741935,7.30737267 5.51612903,6.3718888 5.51612903,5.24285654 C5.51612903,4.11382429 4.67741935,3.17834041 3.58064516,3.01705009 Z M3.25806452,6.85575977 C2.35483871,6.85575977 1.64516129,6.14608235 1.64516129,5.24285654 C1.64516129,4.33963074 2.35483871,3.62995332 3.25806452,3.62995332 C4.16129032,3.62995332 4.87096774,4.33963074 4.87096774,5.24285654 C4.87096774,6.14608235 4.16129032,6.85575977 3.25806452,6.85575977 Z M9.38709677,13.984792 L9.38709677,1.04930816 C9.38709677,0.85575977 9.25806452,0.726727512 9.06451613,0.726727512 C8.87096774,0.726727512 8.74193548,0.85575977 8.74193548,1.04930816 L8.74193548,13.984792 C7.64516129,14.1460824 6.80645161,15.0815662 6.80645161,16.2105985 C6.80645161,17.3396307 7.64516129,18.2751146 8.74193548,18.4364049 L8.74193548,20.4041469 C8.74193548,20.5976953 8.87096774,20.7267275 9.06451613,20.7267275 C9.25806452,20.7267275 9.38709677,20.5976953 9.38709677,20.4041469 L9.38709677,18.4364049 C10.483871,18.2751146 11.3225806,17.3396307 11.3225806,16.2105985 C11.3225806,15.0815662 10.483871,14.1460824 9.38709677,13.984792 Z M9.06451613,17.8235017 C8.16129032,17.8235017 7.4516129,17.1138243 7.4516129,16.2105985 C7.4516129,15.3073727 8.16129032,14.5976953 9.06451613,14.5976953 C9.96774194,14.5976953 10.6774194,15.3073727 10.6774194,16.2105985 C10.6774194,17.1138243 9.96774194,17.8235017 9.06451613,17.8235017 Z M17.1290323,10.7267275 C17.1290323,9.59769525 16.2903226,8.66221138 15.1935484,8.50092106 L15.1935484,1.04930816 C15.1935484,0.85575977 15.0645161,0.726727512 14.8709677,0.726727512 C14.6774194,0.726727512 14.5483871,0.85575977 14.5483871,1.04930816 L14.5483871,8.50092106 C13.4516129,8.66221138 12.6129032,9.59769525 12.6129032,10.7267275 C12.6129032,11.8557598 13.4516129,12.7912436 14.5483871,12.952534 L14.5483871,20.4041469 C14.5483871,20.5976953 14.6774194,20.7267275 14.8709677,20.7267275 C15.0645161,20.7267275 15.1935484,20.5976953 15.1935484,20.4041469 L15.1935484,12.952534 C16.2903226,12.7912436 17.1290323,11.8557598 17.1290323,10.7267275 Z M14.8709677,12.3396307 C13.9677419,12.3396307 13.2580645,11.6299533 13.2580645,10.7267275 C13.2580645,9.82350171 13.9677419,9.11382429 14.8709677,9.11382429 C15.7741935,9.11382429 16.483871,9.82350171 16.483871,10.7267275 C16.483871,11.6299533 15.7741935,12.3396307 14.8709677,12.3396307 Z" id="Shape" stroke="#094684" stroke-width="0.5" fill="#094684" fill-rule="nonzero"></path>
    </g>
</svg>