<svg xmlns="http://www.w3.org/2000/svg" width="21" height="19" viewBox="0 0 21 19">
    <g fill="#0A4784" fill-rule="nonzero">
        <path d="M19.632 4.047h-3.11v-2.65a.58.58 0 0 0-.58-.58H4.692a.58.58 0 0 0-.58.58v2.65H.976a.58.58 0 0 0-.58.581v8.957c0 .32.26.58.58.58h2.941v3.838c0 .32.26.58.58.58H16.17c.32 0 .58-.26.58-.58v-3.838h2.883c.32 0 .58-.26.58-.58V4.628a.58.58 0 0 0-.58-.58zm-14.36-2.07h10.09v2.068H5.272V1.977zm-.194 15.446v-5.636h10.51v5.636H5.078zm13.974-4.42h-2.303v-1.796a.58.58 0 0 0-.58-.58H4.498a.58.58 0 0 0-.58.58v1.797H1.556V5.209h17.495v7.795z"/>
        <path d="M17.11 7.854a.891.891 0 1 0 .005-1.783.891.891 0 0 0-.006 1.783zM6.24 13.553a.58.58 0 0 0 .58.58h7.023a.58.58 0 0 0 0-1.161H6.82a.58.58 0 0 0-.58.58zM13.843 15.077H6.82a.58.58 0 0 0 0 1.161h7.023a.58.58 0 0 0 0-1.161z"/>
    </g>
</svg>
