<svg xmlns="http://www.w3.org/2000/svg" width="18" height="17" viewBox="0 0 18 17">
    <path fill="#042342" fill-rule="nonzero" d="M6.308 16.002a3.442 3.442 0 0 1-4.863 0 3.441 3.441 0 0 1 0-4.862l3.82-3.82a3.442 3.442 0 0 1 4.863 0 .491.491 0 1 1-.695.694 2.44 2.44 0 0 0-3.473 0l-3.82 3.82a2.44 2.44 0 0 0 0 3.473 2.44 2.44 0 0 0 3.473 0l3.647-3.646a.491.491 0 1 1 .694.694l-3.646 3.647zm6.251-6.252a3.442 3.442 0 0 1-4.862 0 .491.491 0 1 1 .695-.694 2.44 2.44 0 0 0 3.473 0l3.82-3.82a2.44 2.44 0 0 0 0-3.474 2.44 2.44 0 0 0-3.473 0L8.565 5.41a.491.491 0 1 1-.694-.695l3.646-3.646a3.442 3.442 0 0 1 4.863 0 3.441 3.441 0 0 1 0 4.862l-3.82 3.82z"/>
</svg>
