<svg xmlns="http://www.w3.org/2000/svg" width="15" height="17" viewBox="0 0 15 17">
    <path fill="#434343" fill-rule="nonzero" stroke="#434343" stroke-width=".2" d="M9.512 11.47h2.156a2.352 2.352 0 1 1 .003 4.706l-3.765-.001a.47.47 0 0 1 0-.941h3.766a1.41 1.41 0 1 0-.004-2.823H9.512l.373.373a.47.47 0 0 1-.665.665l-1.176-1.176a.47.47 0 0 1 0-.666l1.176-1.176a.47.47 0 0 1 .665.665l-.373.373zM1.788 4.41v8.94H6.73a.47.47 0 0 1 0 .942H1.318a.47.47 0 0 1-.47-.47V3.966a.46.46 0 0 1 .137-.36L4.28.315a.46.46 0 0 1 .36-.138h6.56c.26 0 .471.21.471.47v8.941a.47.47 0 0 1-.94 0v-8.47H5.081V3.94c0 .26-.21.471-.47.471H1.788zm2.353-2.628L2.454 3.47h1.687V1.783z"/>
</svg>
