<svg xmlns="http://www.w3.org/2000/svg" width="18" height="15" viewBox="0 0 18 15">
    <g fill="none" fill-rule="nonzero">
        <path fill="#000" d="M11.575 11.53l.327-.244a.25.25 0 0 1 .148-.049h-.135l-.133.114-.228.2.02-.017.001-.005z"/>
        <path fill="#094684" stroke="#094684" stroke-width=".3" d="M15.625 1H2.706C1.764 1 1.001 1.764 1 2.706v7.313c0 .942.764 1.705 1.706 1.706h3.485l2.827 2.144a.248.248 0 0 0 .147.05.242.242 0 0 0 .147-.05l2.828-2.144h3.485a1.705 1.705 0 0 0 1.705-1.706V2.706A1.705 1.705 0 0 0 15.625 1zm1.218 9.019a1.217 1.217 0 0 1-1.218 1.218H12.06a.25.25 0 0 0-.149.049l-.326.243-.02.017-.194.163h-.025l.203-.175-.224.164h.015L9.165 13.37l-2.167-1.645h-.015l-.214-.163-.137-.116-.088-.067-.012-.01-.155-.134h-3.67a1.218 1.218 0 0 1-1.219-1.218v-7.31c0-.673.546-1.219 1.218-1.219h12.919a1.217 1.217 0 0 1 1.218 1.218v7.313z"/>
        <path fill="#094684" stroke="#094684" stroke-width=".3" d="M10.375 5.65l-.54-.078a.059.059 0 0 1-.046-.034l-.242-.49a.426.426 0 0 0-.764 0l-.242.49a.064.064 0 0 1-.046.033l-.54.078a.426.426 0 0 0-.234.728l.392.382c.014.015.02.035.017.054l-.092.538a.428.428 0 0 0 .42.5.42.42 0 0 0 .199-.051l.49-.253a.056.056 0 0 1 .055 0l.49.253a.426.426 0 0 0 .62-.45l-.092-.537a.064.064 0 0 1 .016-.054l.392-.382a.426.426 0 0 0-.237-.726h-.016zm-.02.466l-.39.38a.425.425 0 0 0-.12.38l.09.537a.056.056 0 0 1-.022.058.056.056 0 0 1-.066 0l-.49-.253a.426.426 0 0 0-.396 0l-.482.253a.056.056 0 0 1-.065 0 .059.059 0 0 1-.025-.058l.093-.538a.433.433 0 0 0-.122-.378l-.39-.38a.056.056 0 0 1-.017-.063.057.057 0 0 1 .05-.04l.54-.08c.14-.022.26-.111.321-.24l.24-.49a.06.06 0 0 1 .056-.033c.023-.001.044.013.054.034l.241.49a.425.425 0 0 0 .327.232l.54.08a.057.057 0 0 1 .05.04.059.059 0 0 1-.017.07zM14.761 5.65l-.539-.078a.059.059 0 0 1-.046-.034l-.241-.49a.426.426 0 0 0-.766 0l-.242.49a.062.062 0 0 1-.046.034l-.538.079a.426.426 0 0 0-.237.726l.39.382a.06.06 0 0 1 .018.054l-.093.538c-.03.159.034.32.163.418a.431.431 0 0 0 .252.081.41.41 0 0 0 .197-.05l.49-.253c.018-.01.04-.01.057 0l.49.253a.426.426 0 0 0 .62-.45l-.094-.537a.06.06 0 0 1 .018-.054l.39-.382a.426.426 0 0 0-.237-.726h-.006zm-.018.466l-.39.38a.43.43 0 0 0-.124.38l.093.537a.059.059 0 0 1-.025.058.054.054 0 0 1-.063 0l-.49-.253a.426.426 0 0 0-.397 0l-.49.253a.054.054 0 0 1-.064 0 .059.059 0 0 1-.024-.058l.093-.538a.431.431 0 0 0-.124-.378l-.39-.38a.057.057 0 0 1-.015-.063.056.056 0 0 1 .049-.04l.539-.08a.421.421 0 0 0 .326-.233l.242-.49a.06.06 0 0 1 .11-.006l.243.49a.421.421 0 0 0 .326.232l.54.08a.056.056 0 0 1 .048.04.057.057 0 0 1-.013.07zM5.987 5.65l-.54-.078A.06.06 0 0 1 5.4 5.54l-.242-.49a.426.426 0 0 0-.764 0l-.242.49a.064.064 0 0 1-.045.032l-.541.079a.428.428 0 0 0-.237.728l.392.38c.013.015.02.035.016.054l-.091.538a.428.428 0 0 0 .619.45l.49-.254a.065.065 0 0 1 .055 0l.49.254a.426.426 0 0 0 .62-.45l-.092-.538a.065.065 0 0 1 .016-.054l.392-.38A.428.428 0 0 0 6 5.651h-.013zm-.02.466l-.39.382a.421.421 0 0 0-.122.377l.091.538a.057.057 0 0 1-.023.06.062.062 0 0 1-.065 0l-.49-.255a.426.426 0 0 0-.397 0l-.475.26a.062.062 0 0 1-.065 0 .06.06 0 0 1-.025-.06L4.1 6.88a.431.431 0 0 0-.122-.377l-.39-.382a.056.056 0 0 1-.017-.062.059.059 0 0 1 .05-.04l.54-.08a.431.431 0 0 0 .326-.233l.24-.49a.06.06 0 0 1 .056-.034c.023 0 .045.013.054.034l.242.49a.431.431 0 0 0 .326.234l.54.078a.059.059 0 0 1 .033.103l-.01-.005z"/>
    </g>
</svg>
