<svg xmlns="http://www.w3.org/2000/svg" width="18" height="19" viewBox="0 0 18 19">
    <g fill="#0A4784" fill-rule="nonzero">
        <path d="M9 .188a.659.659 0 0 0-.659.658v9.725L5.4 7.629a.659.659 0 0 0-.922.922l4.061 4.061.11.088h.044l.066.044h.504l.066-.044h.044l.11-.088 4.06-4.06a.659.659 0 0 0-.921-.923l-2.963 2.942V.846A.659.659 0 0 0 9 .188z"/>
        <path d="M17.232 10.9a.659.659 0 0 0-.659.659v4.039c0 .606-.491 1.097-1.097 1.097H2.524a1.098 1.098 0 0 1-1.097-1.097v-4.04a.659.659 0 0 0-1.317 0v4.04a2.415 2.415 0 0 0 2.414 2.414h12.952a2.415 2.415 0 0 0 2.414-2.414v-4.04a.659.659 0 0 0-.658-.658z"/>
    </g>
</svg>
