<svg xmlns="http://www.w3.org/2000/svg" width="22" height="14" viewBox="0 0 22 14">
    <g fill="none" fill-rule="nonzero" stroke="#F9F9F9">
        <path fill="#F9F9F9" stroke-width=".2" d="M14.54 11.43H7.47a.238.238 0 0 1 0-.475h6.833v-9.48H1.475v9.48H2.86a.238.238 0 0 1 0 .475H1.238A.238.238 0 0 1 1 11.193V1.238C1 1.106 1.106 1 1.238 1H14.54c.132 0 .238.106.238.238v9.955a.238.238 0 0 1-.238.237z"/>
        <path fill="#F9F9F9" stroke-width=".2" d="M20.71 11.43h-1.19a.238.238 0 0 1 0-.475h.95c-.144-6.216-4.577-7.303-5.692-7.478v7.478h.018a.238.238 0 0 1 0 .475h-.256a.238.238 0 0 1-.237-.237V3.208a.238.238 0 0 1 .252-.237c.063.004 6.351.476 6.393 8.22a.238.238 0 0 1-.237.24z"/>
        <path fill="#F9F9F9" stroke-width=".2" d="M17.158 13.623a1.975 1.975 0 0 1-1.973-1.973c0-1.087.885-1.972 1.973-1.972 1.087 0 1.972.885 1.972 1.972a1.975 1.975 0 0 1-1.972 1.973zm0-3.47c-.826 0-1.497.672-1.497 1.497 0 .826.671 1.498 1.497 1.498a1.499 1.499 0 0 0 0-2.994z"/>
        <path fill="#F9F9F9" stroke-width=".5" d="M17.158 12.38a.73.73 0 1 1 .001-1.46.73.73 0 0 1-.001 1.46zm0-.983a.254.254 0 1 0 0 .508.254.254 0 0 0 0-.508z"/>
        <path fill="#F9F9F9" stroke-width=".2" d="M5.124 13.524a1.975 1.975 0 0 1-1.972-1.972c0-1.088.885-1.973 1.972-1.973 1.088 0 1.972.885 1.972 1.973a1.974 1.974 0 0 1-1.972 1.972zm0-3.47a1.499 1.499 0 0 0 0 2.994c.826 0 1.497-.671 1.497-1.496 0-.826-.671-1.498-1.497-1.498z"/>
        <path fill="#F9F9F9" stroke-width=".5" d="M5.124 12.251a.7.7 0 1 1 .002-1.4.7.7 0 0 1-.002 1.4zm0-.923a.224.224 0 1 0 0 .448.224.224 0 0 0 0-.448z"/>
        <path fill="#F9F9F9" stroke-width=".2" d="M19.658 6.841H14.54a.238.238 0 0 1 0-.475h5.118a.238.238 0 1 1 0 .475z"/>
        <path fill="#094684" stroke-width=".2" d="M15.236 8.603a.119.119 0 0 1-.119-.119v-.93a.119.119 0 0 1 .238 0v.93a.119.119 0 0 1-.119.119z"/>
        <path fill="#F9F9F9" stroke-width=".5" d="M6.215 4.425H1.238a.119.119 0 0 1 0-.237h4.977a.119.119 0 1 1 0 .237zM6.215 5.851H1.238a.119.119 0 0 1 0-.238h4.977a.119.119 0 1 1 0 .238zM6.215 7.277H1.238a.119.119 0 0 1 0-.238h4.977a.119.119 0 1 1 0 .238z"/>
    </g>
</svg>
