<svg xmlns="http://www.w3.org/2000/svg" width="14" height="16" viewBox="0 0 14 16">
    <path fill="#434343" fill-rule="nonzero" stroke="#434343" stroke-width=".4" d="M13.133 10.378H9.31V8.91h-.979V7.381c0-.524.225-1.016.605-1.315a2.928 2.928 0 0 0 1.11-2.3A2.94 2.94 0 0 0 6.76.849a2.957 2.957 0 0 0-2.566 2.51A2.93 2.93 0 0 0 5.26 6.049c.39.314.622.828.622 1.374v1.486h-.98v1.47H1.08a.585.585 0 0 0-.585.585v2.75c0 .32.262.582.585.582h.172a1.47 1.47 0 0 0 1.447 1.225h8.815a1.47 1.47 0 0 0 1.448-1.225h.171a.585.585 0 0 0 .585-.585v-2.747a.585.585 0 0 0-.585-.586zM5.569 5.67a2.444 2.444 0 0 1-.89-2.246 2.463 2.463 0 0 1 2.139-2.091 2.453 2.453 0 0 1 2.738 2.434c0 .75-.339 1.447-.926 1.915-.502.399-.789 1.018-.789 1.7v1.527H6.372V7.425c0-.703-.294-1.344-.803-1.755zm-.176 3.729H8.82v.98H5.393v-.98zm6.121 5.632H2.7a.98.98 0 0 1-.948-.735h10.713a.985.985 0 0 1-.95.735zm1.714-1.32a.096.096 0 0 1-.095.096H1.08a.094.094 0 0 1-.095-.096v-2.747c0-.054.041-.096.095-.096h12.053c.051 0 .095.042.095.096v2.747z"/>
</svg>
