<svg xmlns="http://www.w3.org/2000/svg" width="17" height="16" viewBox="0 0 17 16">
    <path fill="#434343" fill-rule="nonzero" stroke="#434343" stroke-width=".3" d="M7.09.17a.34.34 0 0 0-.308.34v3.401h-1.7a.34.34 0 0 0-.26.117L1.079 8.45a.34.34 0 0 0-.08.224v6.121c0 .188.152.34.34.34h14.284a.34.34 0 0 0 .34-.34V8.673a.34.34 0 0 0-.08-.224l-3.74-4.42a.34.34 0 0 0-.26-.118h-1.701v-3.4a.34.34 0 0 0-.34-.34H7.09zm.372.68h2.04v4.762c0 .188.153.34.34.34h.654L8.482 8.47 6.468 5.95h.654a.34.34 0 0 0 .34-.34V.852zM5.24 4.593h1.54v.68h-1.02a.34.34 0 0 0-.265.552l2.72 3.401a.34.34 0 0 0 .532 0l2.72-3.4a.34.34 0 0 0-.265-.553h-1.02v-.68h1.54l3.168 3.74h-4.198a.34.34 0 0 0-.34.34c0 1.038-.834 1.871-1.87 1.871a1.865 1.865 0 0 1-1.871-1.87.34.34 0 0 0-.34-.34H2.072l3.168-3.741zm-3.56 4.42h4.288c.17 1.243 1.226 2.211 2.513 2.211 1.288 0 2.344-.968 2.514-2.21h4.288v5.441H1.68V9.013z"/>
</svg>
