<svg xmlns="http://www.w3.org/2000/svg" width="30" height="20" viewBox="0 0 30 20">
    <g fill="#042342" fill-rule="nonzero">
        <path stroke="#042342" stroke-width=".3" d="M14.832 16.172a6.336 6.336 0 1 0 .009-12.673 6.336 6.336 0 0 0-.009 12.673zm0-11.83A5.498 5.498 0 1 1 9.34 9.839a5.498 5.498 0 0 1 5.493-5.506v.009z"/>
        <path stroke="#042342" stroke-width=".3" d="M14.832 12.532a1.162 1.162 0 0 1-1.157-1.158h-.772a1.937 1.937 0 0 0 1.543 1.891v.747h.776v-.747a1.933 1.933 0 0 0-.39-3.803 1.157 1.157 0 1 1 1.162-1.158h.771a1.937 1.937 0 0 0-1.543-1.89v-.768h-.776v.746a1.933 1.933 0 0 0 .386 3.825 1.157 1.157 0 0 1 0 2.315z"/>
        <path d="M29.852 5.524l-2.187 2.188v10.285a2 2 0 0 1-2 2H4.335a2 2 0 0 1-2-2v-4.286L.86 15.186a.504.504 0 1 1-.713-.713l2.188-2.187V2a2 2 0 0 1 2-2h21.33a2 2 0 0 1 2 2v4.286l1.475-1.474a.504.504 0 0 1 .712.712zm-3.187 2.188l-2.188-2.188a.503.503 0 1 1 .713-.712l1.475 1.475V2a1 1 0 0 0-1-1H4.335a1 1 0 0 0-1 1v10.286l2.187 2.187a.505.505 0 0 1-.713.713l-1.475-1.475v4.286a1 1 0 0 0 1 1h21.33a1 1 0 0 0 1-1V7.712z"/>
    </g>
</svg>
