<svg xmlns="http://www.w3.org/2000/svg" width="22" height="16" viewBox="0 0 22 16">
    <g fill="#094684" fill-rule="nonzero">
        <path d="M20 0H1.176C.528 0 0 .528 0 1.176v13.648C0 15.472.528 16 1.176 16H20c.649 0 1.176-.528 1.176-1.176V1.176C21.176.528 20.65 0 20 0zM1.176.941H20c.13 0 .235.106.235.235v2.589H.941V1.176c0-.13.106-.235.235-.235zm6.118 10.353V8.471h6.588v2.823H7.294zm6.588.941v2.824H7.294v-2.824h6.588zm0-7.53V7.53H7.294V4.706h6.588zM6.352 7.53H.943V4.706h5.41v2.823zm0 .942v2.823H.943V8.471h5.41zm8.472 0h5.411v2.823h-5.411V8.471zm0-.942V4.706h5.411v2.823h-5.411zM.94 14.824v-2.589h5.412v2.824H1.176a.236.236 0 0 1-.235-.235zM20 15.059h-5.176v-2.824h5.411v2.589c0 .13-.105.235-.235.235z"/>
        <path d="M2.672 2.724h1.953a.362.362 0 0 0 .353-.353.362.362 0 0 0-.353-.353H2.672a.362.362 0 0 0-.353.353c-.024.189.14.353.353.353zM16.554 2.724h1.953a.362.362 0 0 0 .353-.353.362.362 0 0 0-.353-.353h-1.953a.362.362 0 0 0-.353.353c-.023.189.141.353.353.353zM9.613 2.724h1.953a.362.362 0 0 0 .353-.353.362.362 0 0 0-.353-.353H9.613a.362.362 0 0 0-.353.353c-.024.189.141.353.353.353z"/>
    </g>
</svg>
