<svg xmlns="http://www.w3.org/2000/svg" width="28" height="28" viewBox="0 0 28 28">
    <g fill="#FFF" fill-rule="nonzero">
        <path d="M13.725 24.295a10.197 10.197 0 0 1-7.352-3.088 10.294 10.294 0 0 1-2.32-3.657.49.49 0 0 1 .378-.657 2.941 2.941 0 0 0 0-5.784.49.49 0 0 1-.377-.657 10.294 10.294 0 0 1 19.333 0 .49.49 0 0 1-.348.657 2.941 2.941 0 0 0 0 5.784.49.49 0 0 1 .378.657 10.338 10.338 0 0 1-9.692 6.745zm-8.544-6.579a9.417 9.417 0 0 0 1.897 2.804 9.314 9.314 0 0 0 13.29 0 9.338 9.338 0 0 0 1.902-2.804 3.922 3.922 0 0 1 0-7.43 9.417 9.417 0 0 0-1.897-2.805 9.314 9.314 0 0 0-13.29 0 9.338 9.338 0 0 0-1.902 2.804 3.922 3.922 0 0 1 0 7.431z"/>
        <path d="M13.725 10.57A10.196 10.196 0 0 1 6.373 7.48a.49.49 0 0 1 0-.686 10.294 10.294 0 0 1 14.705 0 .49.49 0 0 1 0 .686 10.196 10.196 0 0 1-7.353 3.088zM7.431 7.137a9.314 9.314 0 0 0 12.589 0 9.314 9.314 0 0 0-12.589 0zM13.725 24.295a10.196 10.196 0 0 1-7.352-3.088.49.49 0 0 1 0-.687 10.294 10.294 0 0 1 14.705 0 .49.49 0 0 1 0 .687 10.196 10.196 0 0 1-7.353 3.088zm-6.294-3.432a9.314 9.314 0 0 0 12.589 0 9.314 9.314 0 0 0-12.589 0z"/>
        <path d="M13.725 24.295c-2.75 0-4.901-4.52-4.901-10.294 0-5.775 2.151-10.294 4.901-10.294S18.627 8.227 18.627 14c0 5.774-2.152 10.294-4.902 10.294zm0-19.608c-1.892 0-3.921 3.74-3.921 9.314 0 5.573 2.03 9.313 3.921 9.313 1.893 0 3.922-3.74 3.922-9.313 0-5.574-2.03-9.314-3.922-9.314z"/>
        <path d="M13.725 27.5a12.51 12.51 0 0 1-9.406-4.269.49.49 0 1 1 .735-.647 11.52 11.52 0 0 0 19.015-2.515.49.49 0 0 1 .931.216v2.559a.49.49 0 0 1-.98 0v-.745A12.397 12.397 0 0 1 13.725 27.5zM3.431 21.677a.49.49 0 0 1-.416-.235A11.679 11.679 0 0 1 2.5 20.5a.491.491 0 1 1 .882-.432c.143.294.304.584.49.868a.49.49 0 0 1-.44.74zM24.51 8.207a.49.49 0 0 1-.441-.275 6.87 6.87 0 0 0-.49-.858.49.49 0 1 1 .838-.49c.181.304.353.618.49.931a.49.49 0 0 1-.226.657.49.49 0 0 1-.171.035zM2.941 8.207A.49.49 0 0 1 2.5 7.5a12.5 12.5 0 0 1 20.804-2.53.492.492 0 0 1-.755.633A11.515 11.515 0 0 0 3.382 7.932a.49.49 0 0 1-.44.275z"/>
        <path d="M2.97 8.099a.49.49 0 0 1-.49-.49V5.158a.49.49 0 1 1 .98 0v2.45c0 .271-.219.49-.49.49zM23.53 17.922a3.922 3.922 0 0 1 0-7.843 3.922 3.922 0 0 1 0 7.843zm0-6.862a2.941 2.941 0 1 0 0 0z"/>
        <path d="M23.775 15.962h-1.226a.49.49 0 1 1 0-.98h1.226a.245.245 0 0 0 0-.491h-.49a1.225 1.225 0 0 1 0-2.451h1.225a.49.49 0 0 1 0 .98h-1.226a.245.245 0 1 0 0 .49h.49a1.225 1.225 0 0 1 0 2.452z"/>
        <path d="M23.53 13.02a.49.49 0 0 1-.49-.49v-.49a.49.49 0 1 1 .98 0v.49c0 .27-.22.49-.49.49zM23.53 16.452a.49.49 0 0 1-.49-.49v-.49a.49.49 0 1 1 .98 0v.49c0 .27-.22.49-.49.49zM3.922 17.922a3.922 3.922 0 0 1 0-7.843c.23 0 .46.021.686.064a3.922 3.922 0 0 1-.686 7.78zm0-6.862a2.941 2.941 0 0 0 0 5.882 2.941 2.941 0 0 0 .49-5.833 2.686 2.686 0 0 0-.49-.05z"/>
        <path d="M20.098 14.49H7.353a.49.49 0 0 1 0-.98h12.745a.49.49 0 0 1 0 .98zM4.902 15.962h-1.96a.49.49 0 0 1-.452-.304.49.49 0 0 1 .103-.535c.224-.22.35-.52.348-.833v-1.025a1.225 1.225 0 1 1 2.451 0 .49.49 0 0 1-.98 0 .245.245 0 0 0-.49 0v1.025c0 .235-.039.468-.113.691h1.093a.49.49 0 1 1 0 .98z"/>
        <path d="M3.922 14.49h-.98a.49.49 0 0 1 0-.98h.98a.49.49 0 0 1 0 .98z"/>
    </g>
</svg>
