<?xml version="1.0" encoding="UTF-8"?>
<svg width="24px" height="24px" viewBox="0 0 24 24" version="1.1" xmlns="http://www.w3.org/2000/svg" xmlns:xlink="http://www.w3.org/1999/xlink">
    <!-- Generator: Sketch 56 (81588) - https://sketch.com -->
    <title>Group 119</title>
    <desc>Created with Sketch.</desc>
    <g id="Letter-Of-Credit-v-01" stroke="none" stroke-width="1" fill="none" fill-rule="evenodd">
        <g id="Group-119" transform="translate(1.000000, 1.000000)" fill="#004589">
            <path d="M10.7607901,0.534676247 C9.45135309,1.33775993 8.36336661,2.33733728 7.44715866,3.56431615 C7.5083049,3.56716145 7.5384317,3.5698022 7.5685399,3.5698022 C8.5938366,3.57000676 9.61911471,3.56868639 10.6443742,3.57209223 C10.7398687,3.57240575 10.7631147,3.544306 10.7628017,3.45158242 C10.7595069,2.51923246 10.7607901,1.5868825 10.7607901,0.654513948 L10.7607901,0.534676247 Z M7.47310118,18.413126 C7.65010541,18.9818343 10.2771992,21.3800203 10.7607901,21.4178833 L10.7607901,21.3257921 C10.7607901,20.3934235 10.7592652,19.4610363 10.763044,18.5286864 C10.7634309,18.431388 10.7323742,18.4110059 10.6415475,18.4112821 C9.61935647,18.414186 8.59716543,18.413126 7.57495579,18.413126 L7.47310118,18.413126 Z M14.5198332,18.4186492 C14.4842948,18.4164734 14.4570691,18.4133305 14.429862,18.4133305 C13.3980006,18.4131074 12.3661206,18.414186 11.3342779,18.4112463 C11.2454782,18.4110059 11.2262863,18.4415046 11.2265076,18.5235909 C11.2288899,19.4593998 11.2279414,20.3952088 11.2282948,21.3310178 C11.2283134,21.3627997 11.2324232,21.3946002 11.2348408,21.4292832 C11.913419,21.2022908 14.280288,19.0346306 14.5198332,18.4186492 L14.5198332,18.4186492 Z M14.5109068,3.56997692 C14.5156861,3.55948098 14.5204469,3.54899239 14.5252263,3.5385038 C13.6232821,2.33391547 12.5352584,1.33320372 11.2279913,0.53419273 L11.2279913,0.660911243 C11.2279913,1.59052747 11.2279913,2.5201437 11.2280716,3.44974134 C11.2280716,3.56957904 11.2284249,3.56991378 11.3523911,3.56991378 C12.3718856,3.56997692 13.3913615,3.56997692 14.4108189,3.56997692 L14.5109068,3.56997692 Z M9.79567261,21.4134387 C9.8003962,21.4030803 9.80513838,21.3927033 9.80988056,21.3823635 C9.77421192,21.3590245 9.7384131,21.3358901 9.70291183,21.3122908 C9.66426771,21.2866086 9.62476813,21.2620237 9.58757456,21.2343888 C8.54561513,20.4598512 7.63117388,19.5595807 6.88780448,18.4913812 C6.84819332,18.4344565 6.80521615,18.411508 6.73499467,18.4116561 C5.73112147,18.413814 4.72722967,18.4130702 3.72335647,18.4133491 C3.69159315,18.4133677 3.65984844,18.4170499 3.62808512,18.4190211 L3.6212415,18.4481623 C5.34629814,20.1297582 7.40395833,21.1191631 9.79567261,21.4134387 L9.79567261,21.4134387 Z M12.1953649,0.569229079 C12.1901392,0.578304311 12.1849135,0.587379544 12.1797064,0.596454776 C12.2526058,0.645866441 12.3274393,0.692637363 12.3981071,0.745043111 C13.4385044,1.51669822 14.3515695,2.41430938 15.094195,3.47940321 C15.1393294,3.54417582 15.1864351,3.57221978 15.2683911,3.57197957 C16.2692888,3.56890955 17.2702052,3.57004396 18.2711401,3.56963483 C18.3020851,3.56963483 18.3330116,3.56466948 18.363938,3.56201014 C18.3654816,3.55273035 18.3670065,3.54345055 18.3685314,3.53415216 C16.6440141,1.85257481 14.5868932,0.863002536 12.1953649,0.569229079 L12.1953649,0.569229079 Z M18.3699076,18.4503567 C18.3655374,18.439645 18.3611299,18.4289518 18.3567597,18.4182587 C18.3325095,18.4165478 18.3082593,18.4133491 18.2839904,18.4133305 C17.2705957,18.4131074 16.2571823,18.4137025 15.2437876,18.4118052 C15.1795915,18.411694 15.1443505,18.4377109 15.1072686,18.4860254 C14.8678721,18.7980423 14.6374393,19.1181116 14.3809152,19.4155672 C13.7365365,20.1627489 13.0116337,20.8226002 12.1879634,21.370164 C12.1706498,21.381694 12.1569068,21.3986729 12.14149,21.4130854 C12.1469761,21.4212308 12.1524807,21.4294134 12.1579668,21.4375773 C14.5576033,21.1246678 16.6283928,20.1291817 18.3699076,18.4503567 L18.3699076,18.4503567 Z M9.84417303,0.575551986 C9.84179265,0.567053254 9.83941226,0.558554522 9.83703187,0.55005579 C8.44095241,0.714005072 7.13006484,1.14532037 5.90092874,1.8289011 C5.06184167,2.2955503 4.29939197,2.86448183 3.61973517,3.54151648 C3.62313838,3.55100085 3.62654159,3.5605038 3.6299262,3.56998817 L3.73713669,3.56998817 C4.71941902,3.56998817 5.70171995,3.56810989 6.68398369,3.5726158 C6.79286788,3.57311243 6.85646889,3.53917329 6.91852637,3.45061538 C7.57216627,2.51761454 8.35390085,1.70571598 9.25350186,1.00766695 C9.44616458,0.858167371 9.64706568,0.719305156 9.84417303,0.575551986 L9.84417303,0.575551986 Z M6.49548664,4.08223669 C6.46279349,4.07788504 6.45083576,4.07490955 6.43885943,4.07490955 C5.35128208,4.0746385 4.26370473,4.07399831 3.17612739,4.07680642 C3.13971488,4.07689941 3.0932973,4.10269315 3.06847058,4.13123922 C2.29330068,5.02256467 1.68663626,6.01721386 1.24810541,7.1141268 C1.23499467,7.14689434 1.22844861,7.18226543 1.21429645,7.23262553 L1.35648749,7.23262553 L5.0003421,7.23262553 C5.261441,7.23262553 5.26337506,7.23307185 5.32230828,6.97838884 C5.54997016,5.99430262 5.92274277,5.06842434 6.43361513,4.19761116 C6.45334632,4.16396957 6.47058555,4.12885883 6.49548664,4.08223669 L6.49548664,4.08223669 Z M6.49848073,17.9087067 C6.46582477,17.8472629 6.44456864,17.803858 6.42033702,17.7621826 C5.89032857,16.8514979 5.50669544,15.8839256 5.29143762,14.8513762 C5.27496086,14.772377 5.23873432,14.7487591 5.15940042,14.7488703 C3.87975545,14.7511395 2.60011048,14.7504142 1.32046551,14.7507861 C1.28849763,14.7508047 1.25654835,14.7554539 1.22346467,14.7580389 C1.22346467,14.7797599 1.22104708,14.7897092 1.2238738,14.797836 C1.23802595,14.8387117 1.25247566,14.8794945 1.26871065,14.9195334 C1.70311302,15.9907456 2.2995492,16.9627253 3.05320262,17.8390245 C3.09835562,17.8915418 3.14456864,17.9101386 3.21240972,17.9100275 C4.26896763,17.9081116 5.32552553,17.9087067 6.38208343,17.9087067 L6.49848073,17.9087067 Z M15.4922407,17.903388 C15.5357757,17.9060659 15.5569575,17.9085021 15.5781392,17.9085207 C16.6533311,17.9086992 17.7285416,17.9093576 18.8037149,17.9060845 C18.8454461,17.9059544 18.898949,17.8780034 18.9270116,17.8457008 C19.696993,16.9584666 20.3010167,15.9693221 20.7383201,14.8787878 C20.7526954,14.8429146 20.761157,14.8046796 20.7757555,14.7564582 C20.7295424,14.7540034 20.6963844,14.7507117 20.6631891,14.7506932 C19.3896997,14.7504328 18.1162102,14.7515114 16.8427208,14.7483299 C16.7494765,14.7480896 16.7145145,14.7788301 16.6958248,14.867109 C16.4779634,15.8957718 16.0959854,16.8610566 15.5662001,17.7685427 C15.5433446,17.8077261 15.5225162,17.8480626 15.4922407,17.903388 L15.4922407,17.903388 Z M15.5129203,4.07438884 C15.5103167,4.09250211 15.5068949,4.09966188 15.5089964,4.10427388 C15.5205264,4.12950972 15.5320192,4.15493153 15.5460226,4.17880981 C16.0876726,5.10124768 16.4792466,6.08245139 16.698949,7.13045478 C16.7153142,7.20861708 16.7492533,7.23441082 16.8296658,7.23426268 C18.1093852,7.23190025 19.3891604,7.23266272 20.6688797,7.23230938 C20.7011637,7.23230938 20.7334106,7.22784615 20.7775779,7.22459172 C20.7609896,7.17359932 20.7509659,7.13547591 20.7364232,7.09917498 C20.3018163,6.01427557 19.6996151,5.03145393 18.9387462,4.14487067 C18.8942254,4.09300423 18.848403,4.07280811 18.7798924,4.07293767 C17.720173,4.07503973 16.6604165,4.07440744 15.6006785,4.07440744 C15.5708493,4.07440744 15.5410386,4.07438884 15.5129203,4.07438884 L15.5129203,4.07438884 Z M5.78235562,14.7581691 C5.79284421,14.8148149 5.7986836,14.8541285 5.80749848,14.892754 C6.04696932,15.9406086 6.46483914,16.9132764 7.03793635,17.8212646 C7.08007667,17.8880456 7.12444861,17.9104548 7.20136492,17.9103067 C8.34768952,17.9079628 9.49399552,17.9087253 10.6403201,17.9086695 C10.7605112,17.9086695 10.7607948,17.9084649 10.7607948,17.7876602 C10.7607948,16.8179121 10.7607948,15.8482012 10.7607948,14.8784717 C10.7607948,14.7509907 10.7605112,14.7505444 10.6336253,14.7505444 C9.05665486,14.7504328 7.47968445,14.7504142 5.90273263,14.7507675 C5.86658047,14.7507675 5.83042832,14.7551006 5.78235562,14.7581691 L5.78235562,14.7581691 Z M5.77709273,7.22403381 C5.8258907,7.22767878 5.85880702,7.23229079 5.89174193,7.23229079 C7.47802933,7.23264413 9.06429814,7.23212342 10.6505669,7.23396481 C10.7328949,7.23405748 10.7629473,7.21330347 10.7626887,7.12483855 C10.7596557,6.14272358 10.7599347,5.16059003 10.7623522,4.17847506 C10.7625568,4.09977346 10.7454292,4.0722874 10.6605162,4.07249084 C9.50178757,4.07535587 8.34305892,4.07483516 7.18434886,4.07319865 C7.12199383,4.07312426 7.08316374,4.09041927 7.0486667,4.14485207 C6.52821699,4.96610482 6.13270051,5.84229248 5.88344776,6.78304818 C5.84577067,6.92522063 5.8143049,7.06904818 5.77709273,7.22403381 L5.77709273,7.22403381 Z M13.7197436,14.7504488 C12.9357588,14.7504488 12.151774,14.7504488 11.3677893,14.7504886 C11.2282204,14.7505072 11.2279926,14.7507117 11.2279926,14.8849248 C11.2279926,15.8517346 11.2279926,16.8185444 11.2279926,17.7853728 C11.228053,17.9084091 11.2282948,17.9086509 11.3467191,17.9086695 C12.4963539,17.9087253 13.6460074,17.9079442 14.7956422,17.9104184 C14.8704943,17.910585 14.9118349,17.8857582 14.9511299,17.8236822 C15.5275002,16.9134996 15.9441054,15.9366103 16.1859566,14.8859848 C16.2170691,14.7507861 16.2177199,14.7505444 16.0809964,14.7505258 C15.2939245,14.7503956 14.5068341,14.7504488 13.7197436,14.7504488 L13.7197436,14.7504488 Z M13.7161916,7.23263741 C14.5032635,7.23263741 15.2903539,7.23263741 16.077463,7.23256974 C16.2171992,7.23255114 16.2170133,7.23230938 16.1867749,7.10068132 C15.9452956,6.05 15.5294528,5.07279459 14.9533615,4.16231445 C14.9116118,4.09633305 14.8674816,4.07252916 14.7899516,4.07269566 C13.6434038,4.07516991 12.4968746,4.07437025 11.3503083,4.07442604 C11.2283505,4.07442604 11.2280716,4.0746306 11.228053,4.19413356 C11.2279879,5.16404903 11.2279879,6.1339645 11.2279879,7.10387997 C11.228053,7.23208622 11.2282948,7.23253254 11.3549017,7.23255114 C12.1419921,7.23268132 12.9291012,7.23263741 13.7161916,7.23263741 L13.7161916,7.23263741 Z M10.9949423,14.2820541 C14.2772195,14.2820541 17.5594782,14.2819239 20.8417369,14.282891 C20.9142457,14.2829096 20.9649778,14.2800456 20.9932635,14.1913204 C21.2889896,13.2635638 21.4495171,12.3124311 21.4864689,11.3408977 C21.507911,10.7773221 21.4728932,10.2156805 21.4010538,9.65561961 C21.3241561,9.05611496 21.1956523,8.46866103 21.0176997,7.89182587 C20.96349,7.71606762 21.0011857,7.72624007 20.7894985,7.72624007 C14.2590505,7.72618428 7.72862105,7.72618428 1.19817303,7.72620287 C1.17336492,7.72620287 1.14835224,7.7283787 1.12382308,7.72586813 C1.05036577,7.71837363 1.01441817,7.74913271 0.991469738,7.82167878 C0.681777431,8.80104142 0.519799409,9.8044497 0.499138377,10.8306762 C0.488910144,11.3387405 0.524318428,11.84435 0.588477346,12.3486762 C0.666714032,12.9636162 0.804683601,13.5645156 0.983621894,14.1572697 C1.0125213,14.2529501 1.05527532,14.2846391 1.15744607,14.2845278 C4.43661767,14.2815148 7.71577067,14.2820541 10.9949423,14.2820541 L10.9949423,14.2820541 Z M11.0004097,-6.28830321e-13 C17.0321849,0.0270025359 21.9794139,4.88983939 21.989005,10.989809 C21.9984385,17.0211936 17.1386701,21.9891581 10.99749,21.9947418 C4.9250809,22.000279 -0.00139416704,17.0963618 2.95957578e-07,10.9961691 C0.00139535113,4.90916145 4.94159484,0.0217768385 11.0004097,-6.28830321e-13 L11.0004097,-6.28830321e-13 Z" id="Fill-4" stroke="#004589" stroke-width="0.2"></path>
            <path d="M6.6812202,11.7311141 C6.69899873,11.7038884 6.71869273,11.6777413 6.73423965,11.6493254 C7.2422295,10.7200997 7.75074007,9.7911716 8.25575444,8.86034658 C8.29635123,8.7855131 8.33951437,8.74203381 8.42684489,8.7583432 C8.43283305,8.759459 8.43921175,8.75849197 8.44540448,8.75849197 C8.67193195,8.75843618 8.66514413,8.75893829 8.68197422,8.98899915 C8.70451353,9.29705495 8.73921513,9.60419949 8.76804015,9.91180896 C8.79513567,10.2009704 8.82146872,10.4902063 8.84795055,10.7794235 C8.87443238,11.0686779 8.90024472,11.3580068 8.92767498,11.6471496 C8.93048309,11.6767743 8.94231065,11.7055249 8.95601648,11.7577447 C8.98406044,11.7185613 9.00362426,11.6973423 9.01636306,11.67259 C9.40488715,10.9185275 9.7959776,10.1657295 10.1776953,9.40822654 C10.2446065,9.27544548 10.2819861,9.1247929 10.3130241,8.97815723 C10.328478,8.90507185 10.2987418,8.82239053 10.2881044,8.73264243 L11.0964324,8.73264243 C11.0920435,8.74807777 11.0923783,8.75958918 11.0867992,8.76472189 C10.8217764,9.00850719 10.685369,9.33599662 10.5254366,9.64529839 C9.92107819,10.8140693 9.32399112,11.9866154 8.72749916,13.1594404 C8.68792519,13.2372122 8.64440871,13.2702401 8.55735714,13.2629501 C8.46502409,13.2552139 8.37148225,13.2588774 8.27860989,13.2620575 C8.22242899,13.2639915 8.1946082,13.248891 8.18915934,13.1867033 C8.16864708,12.9528487 8.14287194,12.7194776 8.11962595,12.4859019 C8.09022443,12.1907895 8.06091589,11.8956585 8.03240702,11.6004717 C8.00508834,11.3175587 7.97931319,11.0344784 7.95188293,10.7515841 C7.94012976,10.6303331 7.92592181,10.5093238 7.91282967,10.3882029 L7.88588293,10.3816754 C7.86583559,10.4094218 7.84244083,10.4353457 7.82624303,10.465175 C7.33712891,11.3658732 6.84782883,12.2664784 6.36193195,13.1689062 C6.3240131,13.2393508 6.2817612,13.2696078 6.2030224,13.2624852 C6.13538588,13.2563669 6.06665216,13.2587658 5.99862511,13.2619087 C5.94091927,13.2646238 5.91285672,13.24188 5.9071847,13.1839882 C5.86993533,12.8027726 5.83302071,12.4215013 5.79309341,12.0405647 C5.75283136,11.6565782 5.70767836,11.2731124 5.6674907,10.889126 C5.62728445,10.5050651 5.59328952,10.1203347 5.55127937,9.73647844 C5.52645266,9.50950465 5.49872485,9.2822891 5.45779332,9.05782587 C5.43780178,8.948235 5.38467075,8.84470668 5.34401817,8.73137785 L6.58580008,8.73137785 C6.58368005,8.74173626 6.58500042,8.75573964 6.57864032,8.76330854 C6.41591843,8.95708707 6.4044814,9.18536264 6.42631403,9.42170921 C6.45926754,9.77856298 6.48989645,10.1356399 6.52476543,10.4923077 C6.55840702,10.83659 6.59632587,11.1804818 6.63199451,11.5245782 C6.63889391,11.5910989 6.64411961,11.657787 6.65010778,11.7244193 L6.6812202,11.7311141 Z" id="Fill-40"></path>
            <path d="M1.72682578,12.2983347 C1.82044201,12.7347456 2.09952401,12.9835334 2.54355951,13.0382079 C2.73992299,13.0623838 2.9315257,13.0579391 3.12190101,13.0027625 C3.64724167,12.8504548 3.81083762,12.2426188 3.57384015,11.8354607 C3.44883254,11.6207236 3.26011234,11.4721352 3.06345131,11.329126 C2.8533448,11.1763533 2.63897963,11.0272071 2.44391792,10.8565444 C2.1615071,10.6094303 2.01029662,10.2925596 2.04070237,9.91002367 C2.07691031,9.45425359 2.29940228,9.11017582 2.69525351,8.88115638 C2.95162883,8.7328284 3.23058064,8.66409467 3.5255071,8.64203888 C3.9499044,8.61029417 4.35589087,8.68655959 4.75367616,8.82512426 C4.76221209,8.82809975 4.76976238,8.83388335 4.78962375,8.84498563 C4.72248935,9.09905495 4.65472265,9.35559763 4.58695596,9.61214032 L4.55788918,9.61217751 C4.54775393,9.5821437 4.5404082,9.55077092 4.52698132,9.52228064 C4.4680481,9.39718005 4.42572181,9.25889434 4.3435612,9.15120034 C4.15792806,8.90787997 3.88104049,8.88766526 3.60270237,8.89887912 C3.35741074,8.90873542 3.14198555,8.99057988 2.98733466,9.19283855 C2.74552063,9.50911412 2.76785537,9.91612342 3.05588242,10.195131 C3.17493905,10.3104311 3.31791116,10.4016298 3.45307261,10.4995604 C3.66847921,10.6556619 3.89517405,10.7975182 4.10122646,10.9649265 C4.38361868,11.194355 4.55160347,11.4974269 4.54667532,11.867038 C4.53949696,12.4055452 4.31144455,12.8277481 3.83240989,13.0962485 C3.54585199,13.256869 3.23335156,13.3243195 2.90740566,13.3364074 C2.5031115,13.3514336 2.11213263,13.2885021 1.73790947,13.1323077 C1.42611572,13.0021488 1.42630169,13.0010144 1.51288834,12.6756636 C1.55975224,12.4996078 1.60762037,12.3238123 1.65556289,12.1480355 C1.65688326,12.1431817 1.66439637,12.1400203 1.68782832,12.1200287 C1.70270575,12.1879814 1.71496103,12.2431209 1.72682578,12.2983347 Z" id="Fill-42"></path>
            <path d="M14.7922427,10.8127155 C15.0761598,10.8127155 15.3476544,10.8135337 15.6191489,10.8121204 C15.6839587,10.811767 15.7494751,10.8086428 15.8133737,10.7985819 C15.9493906,10.7771956 16.0801074,10.7406901 16.1742444,10.6257062 C16.1822596,10.6300578 16.1902934,10.6344281 16.19829,10.6387797 C16.124312,10.8997484 16.0502968,11.1607172 15.9766535,11.4204957 C15.9530542,11.4159209 15.9433095,11.4165532 15.9418217,11.4133731 C15.830427,11.171931 15.6123052,11.1193579 15.3798454,11.1074374 C15.17582,11.0969674 14.9708648,11.1059868 14.7663932,11.1031043 C14.7147127,11.102379 14.6862782,11.1190418 14.6723678,11.1691973 C14.5212875,11.7141018 14.3663577,12.2579462 14.219536,12.8039851 C14.1817473,12.944521 14.1728953,13.0913427 14.2739688,13.2442641 L12.9592875,13.2442641 C12.9649037,13.2338313 12.967656,13.2194374 12.9757828,13.2151043 C13.133744,13.1305447 13.2036865,12.9820122 13.2511827,12.8227679 C13.4251742,12.2393123 13.5969342,11.6551686 13.765607,11.0701322 C13.9394126,10.4673173 14.1100381,9.86359121 14.2789713,9.25940017 C14.327509,9.08587354 14.3600719,8.90950161 14.2457203,8.72937312 L17.0177947,8.72937312 C16.9343323,8.98677126 16.8534363,9.23613559 16.7725588,9.48551851 C16.7633162,9.48629958 16.7540736,9.48709924 16.7448124,9.4878803 C16.7288006,9.46085917 16.7111336,9.4346377 16.6969815,9.40666813 C16.5753957,9.16626746 16.3720026,9.04256162 16.111443,9.02454134 C15.8994768,9.00988707 15.6857254,9.01812544 15.4728293,9.02102654 C15.3358826,9.02288622 15.2574785,9.10685072 15.2214194,9.23051936 C15.1513839,9.47078986 15.0854768,9.71226915 15.018547,9.95343229 C14.9491252,10.2035591 14.8802427,10.4538533 14.8118995,10.704259 C14.8041074,10.7328609 14.801132,10.7627645 14.7922427,10.8127155" id="Fill-44"></path>
            <path d="M17.088747,9.47874928 C17.094326,9.45382959 17.0974875,9.43030465 17.104889,9.40819307 C17.1727673,9.20591581 17.2419473,9.00406627 17.3093049,8.80162164 C17.3263582,8.75036889 17.3480792,8.71927506 17.4122567,8.71938634 C18.4845475,8.7213951 19.5568569,8.7208 20.6291477,8.72120913 C20.6465729,8.72122773 20.6639981,8.72649062 20.6936785,8.73128859 C20.6091189,8.98788707 20.5268096,9.23764193 20.4445188,9.48737819 C20.4358155,9.48799189 20.4271308,9.48858698 20.4184089,9.48918208 C20.4032339,9.46470871 20.3860877,9.44122096 20.3731257,9.41559459 C20.25578,9.18317194 20.0597512,9.06030296 19.8091409,9.02526661 C19.6811206,9.0073579 19.5498831,9.01356923 19.4204309,9.00440101 C19.3473455,8.99923111 19.3175906,9.0322962 19.2984731,9.09924463 C19.1084511,9.76506543 18.9139845,10.4296216 18.7245019,11.0955912 C18.5705762,11.6365718 18.4194773,12.1783706 18.2719676,12.7211178 C18.2259592,12.8903858 18.1801925,13.0642844 18.303545,13.2419581 L16.9955771,13.2419581 C17.3118341,13.0272582 17.3408451,12.6924974 17.4296261,12.393368 C17.7533218,11.302871 18.0659524,10.2091009 18.3825255,9.11650245 C18.4124478,9.01327168 18.4070547,9.00220659 18.2978915,9.00653964 C18.1313573,9.0131601 17.9638189,9.0177721 17.7991071,9.04055317 C17.5388822,9.07655655 17.3324579,9.21335452 17.1681925,9.41600372 C17.1507673,9.4375202 17.1323379,9.45823702 17.113332,9.47834015 C17.110561,9.48127844 17.1019879,9.47874928 17.088747,9.47874928" id="Fill-46"></path>
            <path d="M13.1041844,8.73216264 C12.8855605,8.85471547 12.824749,9.05262249 12.7680102,9.2482235 C12.4416924,10.3733292 12.1179967,11.4991973 11.7964954,12.6256977 C11.7653086,12.7349352 11.7436062,12.8497518 11.7390872,12.9628389 C11.7355166,13.0520291 11.765197,13.1425582 11.7815994,13.241363 L10.5007642,13.241363 C10.5001505,13.234352 10.497268,13.2247003 10.4994439,13.2233799 C10.6845005,13.1113156 10.7515791,12.922893 10.8070533,12.7322945 C11.1369975,11.5986343 11.4658631,10.4646394 11.7878293,9.3286918 C11.8273475,9.18925309 11.8287051,9.03778225 11.8365529,8.89129535 C11.8391565,8.84309248 11.8064075,8.79301133 11.7858953,8.73216264 L13.1041844,8.73216264 Z" id="Fill-48"></path>
        </g>
    </g>
</svg>