<svg xmlns="http://www.w3.org/2000/svg" width="24" height="24" viewBox="0 0 24 24">
    <g fill="none" fill-rule="evenodd">
        <path fill="#E3E3E4" stroke="#E3E3E4" stroke-width=".2" d="M11.76 1.535a11.73 11.73 0 0 0-3.313 3.03c.061.002.091.005.122.005 1.025 0 2.05-.001 3.075.002.096 0 .12-.028.119-.12-.003-.933-.002-1.865-.002-2.797v-.12zM8.474 19.413c.177.569 2.804 2.967 3.288 3.005v-.092c0-.933-.002-1.865.002-2.797 0-.098-.03-.118-.121-.118-1.023.003-2.045.002-3.067.002h-.102zm7.047.006c-.036-.003-.063-.006-.09-.006-1.032 0-2.064.001-3.096-.002-.089 0-.108.03-.107.113.002.935 0 1.871.001 2.807 0 .032.004.064.007.098.678-.227 3.045-2.394 3.285-3.01zM15.51 4.57c.006-.01.01-.021.015-.031a11.687 11.687 0 0 0-3.297-3.005V4.45c0 .12 0 .12.124.12H15.511zm-4.714 17.843l.014-.03-.107-.07c-.039-.026-.078-.051-.115-.079-1.042-.774-1.957-1.674-2.7-2.743a.165.165 0 0 0-.153-.08c-1.004.003-2.008.002-3.012.002-.031 0-.063.004-.095.006l-.007.03c1.725 1.68 3.783 2.67 6.175 2.964zm2.4-20.844l-.016.027c.073.05.147.097.218.149 1.04.772 1.954 1.67 2.696 2.734.045.065.092.093.174.093 1.001-.003 2.002-.002 3.003-.002.031 0 .062-.005.093-.008l.005-.028c-1.725-1.681-3.782-2.671-6.174-2.965zM19.37 19.45l-.013-.032c-.024-.001-.049-.005-.073-.005l-3.04-.001c-.064 0-.1.026-.137.074-.24.312-.47.632-.726.93a10.771 10.771 0 0 1-2.193 1.954c-.017.012-.031.029-.047.043l.017.025c2.4-.313 4.47-1.309 6.212-2.988zM10.844 1.576l-.007-.026A10.563 10.563 0 0 0 6.901 2.83 10.325 10.325 0 0 0 4.62 4.542l.01.028h.107c.982 0 1.965-.002 2.947.003a.25.25 0 0 0 .235-.122 11.255 11.255 0 0 1 2.335-2.443c.192-.15.393-.289.59-.432zM7.495 5.082c-.032-.004-.044-.007-.056-.007-1.088 0-2.175-.001-3.263.002a.164.164 0 0 0-.108.054 10.393 10.393 0 0 0-1.82 2.983c-.013.033-.02.068-.034.119H6c.261 0 .263 0 .322-.255.228-.984.6-1.91 1.112-2.78.02-.034.037-.07.061-.116zm.003 13.827c-.032-.062-.053-.105-.078-.147a9.69 9.69 0 0 1-1.129-2.91c-.016-.08-.052-.103-.132-.103-1.28.002-2.559.001-3.839.002-.032 0-.063.004-.097.007 0 .022-.002.032 0 .04a2.5 2.5 0 0 0 .046.122 10.504 10.504 0 0 0 1.784 2.919.188.188 0 0 0 .16.071c1.056-.002 2.113-.001 3.17-.001h.115zm8.994-.006c.044.003.065.006.086.006 1.075 0 2.15 0 3.226-.003a.187.187 0 0 0 .123-.06 10.404 10.404 0 0 0 1.811-2.967c.015-.036.023-.074.038-.123-.046-.002-.08-.005-.113-.005-1.273 0-2.547 0-3.82-.003-.094 0-.128.03-.147.12a9.72 9.72 0 0 1-1.13 2.9l-.074.135zm.02-13.829c-.002.019-.005.026-.003.03.012.026.023.05.037.075a9.75 9.75 0 0 1 1.153 2.951c.016.079.05.104.13.104 1.28-.002 2.56-.001 3.84-.002.032 0 .064-.004.109-.007-.017-.051-.027-.09-.042-.126a10.513 10.513 0 0 0-1.797-2.954.188.188 0 0 0-.16-.072c-1.059.002-2.119.001-3.178.001h-.088zm-9.73 10.684l.025.135a9.365 9.365 0 0 0 1.23 2.928c.043.067.087.09.164.09 1.147-.003 2.293-.002 3.44-.002.12 0 .12 0 .12-.121v-2.91c0-.127 0-.127-.127-.127H6.903c-.036 0-.073.004-.12.007zm-.005-7.534c.049.004.082.008.115.008 1.586 0 3.172 0 4.759.002.082 0 .112-.02.112-.11-.003-.981-.003-1.963 0-2.946 0-.078-.018-.106-.102-.106-1.16.003-2.318.003-3.477.001-.062 0-.1.017-.135.072a9.411 9.411 0 0 0-1.166 2.638c-.037.142-.069.286-.106.441zm7.943 7.526h-2.352c-.14 0-.14 0-.14.135v2.9c0 .123 0 .124.119.124 1.15 0 2.299-.001 3.449.001.074 0 .116-.024.155-.086a9.398 9.398 0 0 0 1.235-2.938c.031-.135.032-.135-.105-.135H14.72zm-.004-7.517h2.361c.14 0 .14 0 .11-.132a9.399 9.399 0 0 0-1.234-2.939c-.041-.066-.086-.09-.163-.09-1.147.003-2.293.002-3.44.002-.122 0-.122 0-.122.12v2.91c0 .128 0 .129.127.129h2.361zm-2.721 7.05h9.847c.072 0 .123-.003.151-.092.296-.927.457-1.879.493-2.85a10.186 10.186 0 0 0-.085-1.685c-.077-.6-.205-1.187-.383-1.764-.055-.176-.017-.166-.229-.166H2.2c-.026 0-.05.002-.075 0-.074-.008-.11.023-.133.096-.31.979-.471 1.982-.492 3.009-.01.508.025 1.013.09 1.518.078.615.216 1.216.395 1.808.029.096.071.128.173.128 3.28-.003 6.559-.003 9.838-.003zM12 1c6.032.027 10.98 4.89 10.989 10.99.01 6.031-4.85 11-10.992 11.005A10.978 10.978 0 0 1 1 11.996C1.001 5.91 5.942 1.022 12 1z"/>
        <path fill="#FFF" d="M14.104 9.732h-1.318c.02.061.053.111.05.16-.007.146-.009.297-.048.437-.322 1.136-.651 2.27-.98 3.403-.056.19-.123.38-.309.491-.002.002.001.011.002.018h1.28c-.016-.098-.045-.189-.042-.278.005-.113.026-.228.057-.337.322-1.127.646-2.253.972-3.378.057-.195.118-.393.336-.516m3.985.747c.013 0 .022.002.024 0 .02-.02.038-.041.055-.063a.97.97 0 0 1 .631-.375c.165-.023.332-.028.499-.034.109-.005.114.006.085.11-.317 1.092-.63 2.186-.953 3.276-.09.3-.118.634-.434.849h1.308c-.124-.178-.078-.352-.032-.52.147-.544.299-1.085.453-1.626.189-.666.383-1.33.573-1.997.02-.067.05-.1.122-.095.13.01.261.003.39.021.25.035.446.158.563.39.013.026.03.05.045.074l.027-.002.249-.756c-.03-.005-.047-.01-.065-.01-1.072 0-2.144 0-3.217-.002-.064 0-.086.031-.103.083l-.204.606c-.008.022-.01.046-.016.07m-2.297 1.335c.01-.05.012-.08.02-.109l.207-.75c.066-.242.132-.483.202-.723.036-.124.115-.208.252-.21.213-.003.426-.011.638.004a.67.67 0 0 1 .586.382c.014.028.032.054.048.08l.028-.001.245-.757h-2.772c.114.18.081.357.033.53a233.216 233.216 0 0 1-1.028 3.564c-.047.159-.117.308-.275.392-.008.004-.011.019-.017.03h1.315a.506.506 0 0 1-.054-.441c.146-.546.301-1.09.452-1.635.014-.05.043-.067.094-.066.205.003.41-.006.614.004.232.012.45.065.562.306.001.004.011.003.035.007l.221-.781-.024-.013c-.094.115-.225.151-.36.173-.065.01-.13.013-.195.013-.271.002-.543 0-.827 0M2.688 13.12c-.024.02-.031.023-.032.028a89.39 89.39 0 0 0-.143.528c-.087.325-.087.326.225.456.374.157.765.22 1.17.204a2.01 2.01 0 0 0 .924-.24c.48-.268.707-.69.715-1.229.005-.37-.163-.673-.446-.902-.206-.167-.433-.31-.648-.465-.135-.098-.278-.19-.397-.305a.733.733 0 0 1-.069-1.002c.155-.202.37-.284.616-.294.278-.011.555.009.74.252.083.108.125.246.184.371.013.029.02.06.03.09h.03l.203-.767c-.02-.011-.028-.017-.036-.02a3.014 3.014 0 0 0-1.229-.183 1.91 1.91 0 0 0-.83.24 1.246 1.246 0 0 0-.654 1.028c-.03.383.12.7.403.947.195.17.41.32.62.472.196.143.385.292.51.506.237.408.073 1.015-.452 1.168-.19.055-.382.06-.578.035-.444-.054-.724-.303-.817-.74l-.04-.178m4.994-.389l-.03-.007-.019-.2c-.036-.344-.074-.687-.107-1.032-.035-.356-.066-.713-.099-1.07-.022-.237-.01-.465.153-.659.006-.007.005-.021.007-.032H6.344c.04.114.094.217.114.327.04.224.068.451.093.678.042.384.076.77.116 1.153.04.384.086.768.126 1.152.04.38.077.762.114 1.143.006.058.034.08.092.078.068-.003.136-.006.204 0 .079.008.121-.023.159-.093.486-.903.975-1.803 1.464-2.704.016-.03.04-.056.06-.083l.027.006c.013.121.027.242.039.364l.08.848.088.886c.023.233.049.467.07.7.005.063.032.078.089.076.092-.003.186-.007.278.001.087.007.13-.026.17-.104a589.675 589.675 0 0 1 1.798-3.514c.16-.309.297-.636.562-.88.005-.005.005-.017.01-.032h-.809c.01.09.04.172.025.245a1.772 1.772 0 0 1-.135.43c-.382.758-.773 1.51-1.162 2.265-.012.024-.032.046-.06.085-.014-.052-.026-.081-.028-.11-.028-.29-.054-.58-.08-.869l-.08-.867c-.029-.308-.063-.615-.086-.923-.017-.23-.01-.23-.237-.23h-.018c-.087-.017-.13.027-.171.101-.505.931-1.014 1.86-1.522 2.79-.015.028-.035.054-.053.081m4.314 2.551c-3.28 0-6.558 0-9.838.003-.102 0-.144-.032-.173-.128a11.096 11.096 0 0 1-.396-1.808c-.064-.505-.1-1.01-.089-1.518.02-1.027.183-2.03.492-3.01.023-.072.06-.103.133-.095.024.002.05 0 .074 0H21.79c.212 0 .174-.01.229.166.178.577.306 1.164.383 1.764.072.56.107 1.121.085 1.685a10.678 10.678 0 0 1-.493 2.85c-.028.089-.079.092-.151.092h-9.847"/>
        <path fill="#E3E3E4" d="M7.681 12.731c.018-.027.038-.053.053-.082.508-.929 1.017-1.858 1.522-2.789.04-.074.084-.118.17-.102h.02c.226 0 .22 0 .236.231.023.308.057.615.086.923l.08.867c.026.29.052.579.08.868.002.03.014.059.028.11.028-.038.048-.06.06-.084.389-.754.78-1.507 1.162-2.265.067-.133.104-.283.135-.43.015-.073-.014-.156-.025-.245h.808c-.004.015-.004.027-.01.032-.264.244-.4.571-.56.88a586.91 586.91 0 0 0-1.799 3.514c-.04.078-.083.111-.17.104-.092-.008-.186-.004-.278 0-.057.001-.084-.014-.09-.076-.02-.234-.046-.468-.07-.701l-.087-.886-.08-.848c-.012-.122-.026-.243-.04-.364l-.026-.006c-.02.027-.044.053-.06.083-.489.9-.978 1.801-1.464 2.704-.038.07-.08.1-.159.093a1.505 1.505 0 0 0-.204 0c-.058.003-.086-.02-.092-.078-.037-.381-.074-.762-.114-1.143-.04-.384-.085-.768-.126-1.152-.04-.384-.074-.769-.116-1.153a9.602 9.602 0 0 0-.093-.678c-.02-.11-.073-.213-.114-.327h1.242c-.002.01-.001.025-.007.032-.163.194-.175.422-.153.659.033.357.064.714.099 1.07.033.345.071.688.107 1.033.007.066.012.133.018.2l.031.006zM2.688 13.12l.039.178c.093.437.373.686.817.74.196.024.388.02.578-.035.525-.153.689-.76.452-1.168-.125-.214-.314-.363-.51-.506-.21-.153-.425-.302-.62-.472-.282-.248-.434-.564-.403-.947.036-.456.258-.8.654-1.029a1.91 1.91 0 0 1 .83-.239c.425-.032.83.045 1.229.183.008.003.016.009.036.02l-.203.767h-.03c-.01-.03-.017-.061-.03-.09-.059-.125-.101-.263-.183-.37-.186-.244-.463-.264-.741-.253-.246.01-.461.092-.616.294a.733.733 0 0 0 .069 1.002c.119.115.262.207.397.305.215.156.442.298.648.465.283.23.45.532.446.902-.008.539-.236.96-.715 1.23-.286.16-.599.227-.925.24a2.735 2.735 0 0 1-1.17-.205c-.31-.13-.31-.131-.224-.456l.143-.528c0-.005.008-.008.032-.028M15.792 11.813h.827c.065-.001.13-.004.194-.014.136-.022.267-.058.361-.173l.024.013-.221.781c-.024-.004-.034-.003-.035-.007-.112-.241-.33-.294-.562-.306-.204-.01-.41-.001-.614-.004-.051 0-.08.016-.094.066-.15.545-.306 1.089-.452 1.635a.506.506 0 0 0 .054.44h-1.315c.006-.01.009-.025.017-.029.158-.084.228-.233.275-.392a200.433 200.433 0 0 0 1.028-3.564c.049-.173.081-.35-.033-.53h2.772l-.245.757-.028.002c-.016-.027-.034-.053-.048-.081a.67.67 0 0 0-.586-.382c-.212-.015-.425-.007-.638-.004-.137.002-.216.086-.252.21-.07.24-.136.481-.202.722-.07.25-.139.5-.207.751-.008.029-.01.059-.02.109M18.089 10.479c.005-.025.008-.049.016-.07l.204-.607c.017-.052.04-.083.103-.083 1.073.002 2.145.002 3.217.002.018 0 .035.005.065.01l-.25.756-.026.002c-.015-.024-.032-.048-.045-.073a.703.703 0 0 0-.564-.39c-.128-.019-.26-.012-.389-.022-.073-.005-.102.028-.122.095-.19.666-.384 1.33-.573 1.997-.154.54-.306 1.082-.453 1.625-.046.17-.092.343.032.521h-1.308c.316-.215.345-.55.434-.849.323-1.09.636-2.184.953-3.276.03-.104.024-.115-.085-.11-.167.006-.334.01-.499.034a.97.97 0 0 0-.63.375 1.084 1.084 0 0 1-.056.062c-.002.003-.011 0-.024 0M14.104 9.732c-.218.123-.28.32-.336.516-.326 1.125-.65 2.251-.972 3.378-.03.109-.052.224-.057.337-.003.089.026.18.043.278H11.5c0-.007-.004-.016-.002-.018.186-.112.253-.3.308-.49.33-1.134.659-2.268.98-3.404.04-.14.042-.291.05-.438.002-.048-.03-.098-.051-.159h1.318z"/>
    </g>
</svg>
