<svg xmlns="http://www.w3.org/2000/svg" width="21" height="20" viewBox="0 0 21 20">
    <g fill="#094684" fill-rule="nonzero" stroke="#094684">
        <path stroke-width=".6" d="M17.001 11.038h-3.867a.162.162 0 0 0-.16.161c0 .089.072.161.16.161h3.867c1.6 0 2.9 1.302 2.9 2.9 0 1.598-1.3 2.9-2.9 2.9h-3.477l1.014-1.013-.228-.227-1.288 1.289-.115.112.115.115 1.288 1.289.228-.228-1.014-1.015h3.479a3.225 3.225 0 0 0 3.222-3.222A3.227 3.227 0 0 0 17 11.038z"/>
        <path stroke-width=".2" d="M11.199 15.895a.361.361 0 0 0 0-.723H.36a.361.361 0 0 0 0 .723H11.2zM16.979.722a.361.361 0 0 0 0-.722H11.92a.361.361 0 0 0 0 .722h5.058zm0 2.168a.361.361 0 0 0 0-.723H11.92a.361.361 0 0 0 0 .723h5.058zm0 2.167a.361.361 0 0 0 0-.722H11.92a.361.361 0 0 0 0 .722h5.058zm0 2.168a.361.361 0 0 0 0-.723H11.92a.361.361 0 0 0 0 .723h5.058zm0 6.502a.361.361 0 0 0 0-.722H.36a.361.361 0 0 0 0 .722H16.98zm0-2.167a.361.361 0 0 0 0-.723H.36a.361.361 0 0 0 0 .723H16.98zm0-2.168a.361.361 0 0 0 0-.722H.36a.361.361 0 0 0 0 .722H16.98zM0 .362v6.502c0 .2.162.361.361.361h9.393c.2 0 .36-.162.36-.361V.36c0-.2-.16-.361-.36-.361H.36C.161 0 0 .162 0 .361zm.722.36h8.67v5.78H.722V.722z"/>
    </g>
</svg>
